<svg width="231" height="50" viewBox="0 0 231 50" fill="none" xmlns="http://www.w3.org/2000/svg">
<path d="M32.7562 15.4495C32.4663 15.559 32.1412 15.4692 31.935 15.235C29.3721 12.3251 25.6467 10.4936 21.5 10.4936C17.3534 10.4936 13.6279 12.3251 11.0651 15.235C10.8588 15.4692 10.5338 15.559 10.2438 15.4495L0.580776 11.8012C0.0225062 11.5904 -0.178779 10.8933 0.178983 10.4097L7.61255 0.361276C7.78081 0.133822 8.04462 0 8.32475 0L34.6753 2.12107e-06C34.9554 2.12107e-06 35.2192 0.133824 35.3875 0.361278L42.821 10.4097C43.1788 10.8934 42.9775 11.5904 42.4192 11.8012L32.7562 15.4495Z" fill="#194E80"/>
<path d="M8.32475 30.3612C8.52499 30.3612 8.70545 30.4824 8.78949 30.667C11.0085 35.5411 15.8654 38.9228 21.5 38.9228C27.1347 38.9228 31.9916 35.5411 34.2106 30.667C34.2946 30.4824 34.475 30.3612 34.6753 30.3612C34.9554 30.3612 35.2192 30.495 35.3875 30.7225L42.821 40.7709C43.1788 41.2545 42.9775 41.9516 42.4192 42.1624L21.8104 49.9433C21.6102 50.0189 21.3898 50.0189 21.1896 49.9433L0.580776 42.1624C0.0225062 41.9516 -0.178779 41.2545 0.178983 40.7709L7.61255 30.7225C7.78081 30.495 8.04462 30.3612 8.32475 30.3612Z" fill="#194E80"/>
<path d="M29.9284 24.7082C29.9284 29.4358 26.1549 33.2683 21.5 33.2683C16.8452 33.2683 13.0716 29.4358 13.0716 24.7082C13.0716 19.9806 16.8452 16.1482 21.5 16.1482C26.1549 16.1482 29.9284 19.9806 29.9284 24.7082Z" fill="#194E80"/>
<path d="M56.5911 35.6267V22.1493H54V17.632H56.5911V16.0267C56.5911 13.5876 57.2356 11.6462 58.5247 10.2027C59.8138 8.73422 61.5283 8 63.6682 8C65.3698 8 67.1359 8.38578 68.9664 9.15733L67.8449 13.6373C67.4324 13.4631 66.9683 13.3262 66.4527 13.2267C65.937 13.1022 65.473 13.04 65.0604 13.04C63.5393 13.04 62.7787 13.9609 62.7787 15.8027V17.632H67.4968V22.1493H62.7787V35.6267H56.5911Z" fill="#194E80"/>
<path d="M78.9386 36C76.644 36 74.6845 35.5396 73.0603 34.6187C71.436 33.6978 70.1856 32.4782 69.309 30.96C68.4582 29.4418 68.0328 27.7991 68.0328 26.032C68.0328 24.1404 68.4582 22.4107 69.309 20.8427C70.1598 19.2747 71.3974 18.0178 73.0216 17.072C74.6459 16.1262 76.6182 15.6533 78.9386 15.6533C81.2332 15.6533 83.1926 16.1262 84.8168 17.072C86.4411 18.0178 87.6657 19.2622 88.4908 20.8053C89.3416 22.3484 89.767 24.0036 89.767 25.7707C89.767 26.4924 89.7154 27.1271 89.6123 27.6747H74.6072C74.7103 28.9938 75.2002 30.0018 76.0768 30.6987C76.9791 31.3707 77.9975 31.7067 79.1319 31.7067C80.0343 31.7067 80.898 31.4951 81.723 31.072C82.548 30.6489 83.1152 30.0764 83.4246 29.3547L88.6841 30.7733C87.8849 32.3164 86.6345 33.5733 84.9329 34.544C83.257 35.5147 81.2589 36 78.9386 36ZM74.4525 24.016H83.2699C83.141 22.7716 82.6641 21.7884 81.839 21.0667C81.0398 20.32 80.0472 19.9467 78.8612 19.9467C77.6753 19.9467 76.6698 20.32 75.8447 21.0667C75.0455 21.8133 74.5814 22.7964 74.4525 24.016Z" fill="#194E80"/>
<path d="M104.676 21.1413C103.181 21.1662 101.827 21.4027 100.615 21.8507C99.4036 22.2987 98.527 22.9707 97.9856 23.8667V35.6267H91.7979V16.0267H97.4828V19.984C98.1789 18.6649 99.0813 17.632 100.19 16.8853C101.299 16.1387 102.459 15.7529 103.67 15.728C104.186 15.728 104.521 15.7404 104.676 15.7653V21.1413Z" fill="#194E80"/>
<path d="M119.387 21.1413C117.891 21.1662 116.538 21.4027 115.326 21.8507C114.114 22.2987 113.238 22.9707 112.696 23.8667V35.6267H106.509V16.0267H112.194V19.984C112.89 18.6649 113.792 17.632 114.901 16.8853C116.009 16.1387 117.17 15.7529 118.381 15.728C118.897 15.728 119.232 15.7404 119.387 15.7653V21.1413Z" fill="#194E80"/>
<path d="M130.737 36C128.416 36 126.444 35.5271 124.82 34.5813C123.221 33.6356 121.997 32.3911 121.146 30.848C120.295 29.3049 119.87 27.6373 119.87 25.8453C119.87 24.0284 120.295 22.3484 121.146 20.8053C121.997 19.2622 123.234 18.0178 124.858 17.072C126.483 16.1262 128.442 15.6533 130.737 15.6533C133.031 15.6533 134.991 16.1262 136.615 17.072C138.239 18.0178 139.477 19.2622 140.328 20.8053C141.178 22.3484 141.604 24.0284 141.604 25.8453C141.604 27.6373 141.178 29.3049 140.328 30.848C139.477 32.3911 138.239 33.6356 136.615 34.5813C134.991 35.5271 133.031 36 130.737 36ZM126.212 25.8453C126.212 27.3636 126.637 28.5956 127.488 29.5413C128.365 30.4871 129.448 30.96 130.737 30.96C132 30.96 133.057 30.4871 133.908 29.5413C134.784 28.5956 135.223 27.3636 135.223 25.8453C135.223 24.3271 134.784 23.0951 133.908 22.1493C133.057 21.2036 132 20.7307 130.737 20.7307C129.448 20.7307 128.365 21.2036 127.488 22.1493C126.637 23.0951 126.212 24.3271 126.212 25.8453Z" fill="#194E80"/>
<path d="M153.606 36C151.337 36 149.378 35.5271 147.728 34.5813C146.103 33.6356 144.853 32.3911 143.976 30.848C143.126 29.3049 142.7 27.6249 142.7 25.808C142.7 24.016 143.126 22.3484 143.976 20.8053C144.853 19.2622 146.103 18.0178 147.728 17.072C149.352 16.1262 151.311 15.6533 153.606 15.6533C155.926 15.6533 157.886 16.1387 159.484 17.1093C161.108 18.0551 162.32 19.2996 163.119 20.8427L157.086 22.5973C156.287 21.3529 155.114 20.7307 153.567 20.7307C152.304 20.7307 151.234 21.1911 150.357 22.112C149.481 23.0329 149.043 24.2649 149.043 25.808C149.043 27.3511 149.481 28.5956 150.357 29.5413C151.234 30.4871 152.304 30.96 153.567 30.96C154.341 30.96 155.05 30.7858 155.694 30.4373C156.339 30.064 156.816 29.5911 157.125 29.0187L163.158 30.8107C162.41 32.3289 161.212 33.5733 159.562 34.544C157.937 35.5147 155.952 36 153.606 36Z" fill="#194E80"/>
<path d="M174.699 36C172.405 36 170.445 35.5396 168.821 34.6187C167.197 33.6978 165.946 32.4782 165.07 30.96C164.219 29.4418 163.793 27.7991 163.793 26.032C163.793 24.1404 164.219 22.4107 165.07 20.8427C165.921 19.2747 167.158 18.0178 168.782 17.072C170.407 16.1262 172.379 15.6533 174.699 15.6533C176.994 15.6533 178.953 16.1262 180.578 17.072C182.202 18.0178 183.426 19.2622 184.251 20.8053C185.102 22.3484 185.528 24.0036 185.528 25.7707C185.528 26.4924 185.476 27.1271 185.373 27.6747H170.368C170.471 28.9938 170.961 30.0018 171.837 30.6987C172.74 31.3707 173.758 31.7067 174.893 31.7067C175.795 31.7067 176.659 31.4951 177.484 31.072C178.309 30.6489 178.876 30.0764 179.185 29.3547L184.445 30.7733C183.646 32.3164 182.395 33.5733 180.694 34.544C179.018 35.5147 177.02 36 174.699 36ZM170.213 24.016H179.031C178.902 22.7716 178.425 21.7884 177.6 21.0667C176.8 20.32 175.808 19.9467 174.622 19.9467C173.436 19.9467 172.43 20.32 171.605 21.0667C170.806 21.8133 170.342 22.7964 170.213 24.016Z" fill="#194E80"/>
<path d="M207.127 35.6267H200.939V24.6133C200.939 23.3191 200.682 22.3858 200.166 21.8133C199.676 21.216 199.019 20.9173 198.194 20.9173C197.343 20.9173 196.479 21.2409 195.603 21.888C194.726 22.5351 194.107 23.3689 193.746 24.3893V35.6267H187.559V16.0267H193.127V19.312C193.875 18.1671 194.932 17.2711 196.299 16.624C197.665 15.9769 199.238 15.6533 201.017 15.6533C202.332 15.6533 203.389 15.8898 204.188 16.3627C205.013 16.8107 205.632 17.408 206.044 18.1547C206.482 18.8764 206.766 19.6729 206.895 20.544C207.05 21.4151 207.127 22.2613 207.127 23.0827V35.6267Z" fill="#194E80"/>
<path d="M220.172 36C217.877 36 215.918 35.5396 214.293 34.6187C212.669 33.6978 211.419 32.4782 210.542 30.96C209.691 29.4418 209.266 27.7991 209.266 26.032C209.266 24.1404 209.691 22.4107 210.542 20.8427C211.393 19.2747 212.63 18.0178 214.255 17.072C215.879 16.1262 217.851 15.6533 220.172 15.6533C222.466 15.6533 224.426 16.1262 226.05 17.072C227.674 18.0178 228.899 19.2622 229.724 20.8053C230.575 22.3484 231 24.0036 231 25.7707C231 26.4924 230.948 27.1271 230.845 27.6747H215.84C215.943 28.9938 216.433 30.0018 217.31 30.6987C218.212 31.3707 219.231 31.7067 220.365 31.7067C221.267 31.7067 222.131 31.4951 222.956 31.072C223.781 30.6489 224.348 30.0764 224.658 29.3547L229.917 30.7733C229.118 32.3164 227.867 33.5733 226.166 34.544C224.49 35.5147 222.492 36 220.172 36ZM215.686 24.016H224.503C224.374 22.7716 223.897 21.7884 223.072 21.0667C222.273 20.32 221.28 19.9467 220.094 19.9467C218.908 19.9467 217.903 20.32 217.078 21.0667C216.279 21.8133 215.814 22.7964 215.686 24.016Z" fill="#194E80"/>
</svg>
