<?xml version="1.0" standalone="no"?>
<!DOCTYPE svg PUBLIC "-//W3C//DTD SVG 20010904//EN"
 "http://www.w3.org/TR/2001/REC-SVG-20010904/DTD/svg10.dtd">
<svg version="1.0" xmlns="http://www.w3.org/2000/svg"
 width="700.000000pt" height="700.000000pt" viewBox="0 0 700.000000 700.000000"
 preserveAspectRatio="xMidYMid meet">
<metadata>
Created by potrace 1.11, written by Peter Selinger 2001-2013
</metadata>
<g transform="translate(0.000000,700.000000) scale(0.100000,-0.100000)"
fill="#000000" stroke="none">
<path d="M2406 5418 c-61 -59 -616 -798 -616 -821 0 -12 7 -30 15 -41 8 -11
171 -76 420 -167 316 -116 410 -147 424 -139 10 5 45 35 77 66 375 361 967
417 1397 130 45 -29 119 -88 165 -130 45 -42 85 -76 89 -76 4 0 188 66 408
146 247 90 407 154 418 166 37 43 29 57 -288 473 -167 220 -314 406 -327 412
-18 10 -262 13 -1086 13 l-1062 0 -34 -32z"/>
<path d="M3340 4175 c-30 -8 -93 -34 -140 -56 -69 -34 -101 -58 -170 -128
-134 -135 -193 -276 -193 -461 0 -186 58 -325 193 -461 68 -69 102 -94 170
-127 125 -62 191 -75 335 -70 139 6 210 26 319 90 135 80 238 208 292 363 25
71 28 94 28 205 0 111 -3 134 -28 205 -37 108 -87 187 -167 265 -78 76 -146
119 -249 156 -64 23 -94 28 -205 31 -93 2 -146 -1 -185 -12z"/>
<path d="M2422 3084 c-13 -6 -600 -772 -620 -811 -36 -67 -16 -79 338 -208
173 -64 362 -133 420 -155 496 -184 931 -340 947 -340 31 0 1671 605 1693 625
33 30 25 67 -28 137 -27 35 -149 196 -272 358 -280 369 -305 400 -334 400 -28
0 -42 -17 -86 -95 -222 -403 -691 -626 -1157 -550 -335 54 -631 263 -795 560
-35 64 -48 80 -68 82 -14 1 -31 -1 -38 -3z"/>
</g>
</svg>
