<svg width="502" height="283" viewBox="0 0 502 283" fill="none" xmlns="http://www.w3.org/2000/svg">
<g clip-path="url(#clip0)">
<rect width="501.859" height="282.296" transform="translate(0 -0.000366211)" fill="url(#paint0_linear)"/>
<g filter="url(#filter0_f)">
<path d="M271.188 -205.305C171.814 -247.861 95.575 -160.654 33.1189 -78.1487C-38.0298 33.3022 3.4769 124.751 50.5325 198.92C97.5885 273.089 144.256 275.702 128.543 334.038C110.472 401.124 113.101 468.797 155.558 489.171C242.091 530.696 290.692 438.874 406.137 484.817C521.582 530.764 613.327 415.866 627.377 357.084C641.428 298.305 662.086 221.634 614.39 136.573C566.692 51.5162 521.641 79.3734 466.374 42.3164C411.105 5.26101 430.622 -47.2652 418.85 -79.878C407.079 -112.491 370.563 -162.749 271.188 -205.305Z" fill="url(#paint1_linear)"/>
</g>
<g filter="url(#filter1_f)">
<path d="M751.627 929.227C616.908 936.1 416.595 892.352 397.377 650.722C378.157 409.087 644.378 431.915 680.185 201.512C715.993 -28.8892 538.548 -72.2607 601.487 -274.214C664.426 -476.168 754.967 -575.114 936.857 -539.424C1118.75 -503.735 1176.43 -239.933 1150.02 -132.195C1123.61 -24.4564 1022.43 168.262 1123.31 326.321C1224.19 484.38 1426.72 524.282 1652.57 639.111C1878.43 753.941 1989.86 951.386 1806.81 1214.75C1623.77 1478.11 1441.32 1501.02 1271.99 1487.94C1102.66 1474.86 1065.11 1322.57 1124.29 1215.79C1183.47 1109.01 1240.81 983.241 1116.13 906.244C991.451 829.248 886.346 922.354 751.627 929.227Z" fill="url(#paint2_radial)" style="mix-blend-mode:overlay"/>
</g>
<g filter="url(#filter2_f)">
<path d="M258.577 220.344C187.694 200.438 169.446 126.177 206.039 61.6005C260.016 -13.0125 345.11 18.9645 394.6 57.014C444.091 95.063 475.615 152.175 460.751 204.207C445.886 256.239 416.328 257.164 380.435 233.197C340.36 206.438 329.461 240.249 258.577 220.344Z" fill="url(#paint3_radial)"/>
</g>
<g filter="url(#filter3_f)">
<path d="M8.0674 -85.1522C-36.1592 -91.5292 -57.2487 -48.5683 -73.3403 -8.9567C-89.8007 43.14 -63.4354 75.2184 -36.7063 99.8052C-9.97697 124.392 8.93114 120.451 8.90882 145.42C8.8823 174.135 17.1819 200.873 36.3122 204.473C75.3022 211.81 84.8653 169.958 135.869 175.971C186.874 181.986 211.187 126.313 210.498 101.343C209.809 76.3745 209.841 43.5568 181.689 14.6897C153.538 -14.1756 138.539 1.75826 112.508 -7.1342C86.4765 -16.0258 88.6396 -39.0818 80.447 -50.8455C72.2543 -62.6092 52.294 -78.7752 8.0674 -85.1522Z" fill="url(#paint4_radial)"/>
</g>
<g filter="url(#filter4_f)">
<path d="M-76.6493 128.656C-152.914 179.86 -309.688 241.906 -353.116 315.204C-396.543 388.501 -375.896 450.972 -318.243 558.801C-260.589 666.63 -141.943 636.319 -69.678 615.697C2.58707 595.075 115.604 513.37 74.2061 366.427C32.8102 219.483 103.752 212.318 221.147 222.399C338.542 232.481 355.938 121.17 335.108 4.86942C314.277 -111.432 233.323 -252.356 137.892 -220.778C42.4613 -189.2 56.3284 -118.193 45.6459 -42.3514C34.9634 33.4898 -0.384949 77.4518 -76.6493 128.656Z" fill="#195180" style="mix-blend-mode:overlay"/>
</g>
</g>
<defs>
<filter id="filter0_f" x="-273.911" y="-436.987" width="1137.46" height="1206.7" filterUnits="userSpaceOnUse" color-interpolation-filters="sRGB">
<feFlood flood-opacity="0" result="BackgroundImageFix"/>
<feBlend mode="normal" in="SourceGraphic" in2="BackgroundImageFix" result="shape"/>
<feGaussianBlur stdDeviation="61.5" result="effect1_foregroundBlur"/>
</filter>
<filter id="filter1_f" x="-2.12891" y="-836.902" width="2132.38" height="2650.64" filterUnits="userSpaceOnUse" color-interpolation-filters="sRGB">
<feFlood flood-opacity="0" result="BackgroundImageFix"/>
<feBlend mode="normal" in="SourceGraphic" in2="BackgroundImageFix" result="shape"/>
<feGaussianBlur stdDeviation="61.5" result="effect1_foregroundBlur"/>
</filter>
<filter id="filter2_f" x="64.6436" y="-106.545" width="522.806" height="477.877" filterUnits="userSpaceOnUse" color-interpolation-filters="sRGB">
<feFlood flood-opacity="0" result="BackgroundImageFix"/>
<feBlend mode="normal" in="SourceGraphic" in2="BackgroundImageFix" result="shape"/>
<feGaussianBlur stdDeviation="61.5" result="effect1_foregroundBlur"/>
</filter>
<filter id="filter3_f" x="-201.44" y="-208.785" width="534.952" height="537.125" filterUnits="userSpaceOnUse" color-interpolation-filters="sRGB">
<feFlood flood-opacity="0" result="BackgroundImageFix"/>
<feBlend mode="normal" in="SourceGraphic" in2="BackgroundImageFix" result="shape"/>
<feGaussianBlur stdDeviation="61.5" result="effect1_foregroundBlur"/>
</filter>
<filter id="filter4_f" x="-499.377" y="-348.278" width="965.04" height="1107.23" filterUnits="userSpaceOnUse" color-interpolation-filters="sRGB">
<feFlood flood-opacity="0" result="BackgroundImageFix"/>
<feBlend mode="normal" in="SourceGraphic" in2="BackgroundImageFix" result="shape"/>
<feGaussianBlur stdDeviation="61.5" result="effect1_foregroundBlur"/>
</filter>
<linearGradient id="paint0_linear" x1="0" y1="141.148" x2="501.859" y2="141.148" gradientUnits="userSpaceOnUse">
<stop stop-color="#7DF4B7"/>
<stop offset="1" stop-color="#7DF4E1"/>
</linearGradient>
<linearGradient id="paint1_linear" x1="42.2198" y1="312.199" x2="547.413" y2="20.5253" gradientUnits="userSpaceOnUse">
<stop stop-color="#199ED8"/>
</linearGradient>
<radialGradient id="paint2_radial" cx="0" cy="0" r="1" gradientUnits="userSpaceOnUse" gradientTransform="translate(1064.06 488.417) rotate(-15) scale(692.67 1059.13)">
<stop stop-color="#195180"/>
<stop offset="0.5" stop-color="#195380"/>
<stop offset="1" stop-color="#195480"/>
</radialGradient>
<radialGradient id="paint3_radial" cx="0" cy="0" r="1" gradientUnits="userSpaceOnUse" gradientTransform="translate(323.066 145.513) rotate(-30) scale(122.033 141.784)">
<stop stop-color="#195380"/>
<stop offset="0.5" stop-color="#194A80"/>
<stop offset="1" stop-color="#195380"/>
</radialGradient>
<radialGradient id="paint4_radial" cx="0" cy="0" r="1" gradientUnits="userSpaceOnUse" gradientTransform="translate(57.3161 60.7153) rotate(-45) scale(280.205)">
<stop stop-color="#106FD8"/>
<stop offset="1" stop-color="#195380"/>
</radialGradient>
<clipPath id="clip0">
<rect width="501.859" height="282.296" fill="white" transform="translate(0 -0.000366211)"/>
</clipPath>
</defs>
</svg>
