<svg width="358" height="188" viewBox="0 0 358 188" fill="none" xmlns="http://www.w3.org/2000/svg">
<path d="M0.820068 23.3073L0.820068 19.4236L69.2488 19.4236V23.3073" stroke="black"/>
<path d="M21.9974 13.0738C21.4934 13.0738 21.0314 12.9712 20.6114 12.7658C20.2007 12.5605 19.8414 12.2852 19.5334 11.9398C19.2347 11.5852 19.0014 11.1838 18.8334 10.7358C18.6654 10.2878 18.5814 9.82583 18.5814 9.34983C18.5814 8.6685 18.7261 8.04316 19.0154 7.47383C19.3047 6.89516 19.7014 6.43316 20.2054 6.08783C20.7187 5.73316 21.3067 5.55583 21.9694 5.55583C22.5947 5.55583 23.1361 5.7145 23.5934 6.03183C24.0601 6.34916 24.4521 6.74116 24.7694 7.20783L24.7694 5.68183L25.6234 5.68183L25.6234 13.0038C25.6234 13.6852 25.4601 14.2545 25.1334 14.7118C24.8067 15.1692 24.3727 15.5145 23.8314 15.7478C23.2901 15.9812 22.6974 16.0978 22.0534 16.0978C21.2134 16.0978 20.5367 15.9485 20.0234 15.6498C19.5194 15.3512 19.1041 14.9498 18.7774 14.4458L19.3654 13.9838C19.6547 14.4412 20.0374 14.7818 20.5134 15.0058C20.9987 15.2298 21.5121 15.3418 22.0534 15.3418C22.5294 15.3418 22.9634 15.2532 23.3554 15.0758C23.7567 14.9078 24.0741 14.6512 24.3074 14.3058C24.5501 13.9605 24.6714 13.5265 24.6714 13.0038L24.6714 11.5618C24.3914 12.0192 24.0087 12.3878 23.5234 12.6678C23.0381 12.9385 22.5294 13.0738 21.9974 13.0738ZM22.2634 12.2758C22.6461 12.2758 23.0101 12.1872 23.3554 12.0098C23.7007 11.8325 23.9901 11.6085 24.2234 11.3378C24.4661 11.0578 24.6154 10.7685 24.6714 10.4698L24.6714 8.21583C24.5314 7.86116 24.3307 7.5485 24.0694 7.27783C23.8081 6.99783 23.5094 6.78316 23.1734 6.63383C22.8374 6.47516 22.4967 6.39583 22.1514 6.39583C21.6101 6.39583 21.1434 6.54516 20.7514 6.84383C20.3687 7.13316 20.0701 7.5065 19.8554 7.96383C19.6501 8.41183 19.5474 8.8785 19.5474 9.36383C19.5474 9.8865 19.6687 10.3718 19.9114 10.8198C20.1541 11.2585 20.4807 11.6132 20.8914 11.8838C21.3021 12.1452 21.7594 12.2758 22.2634 12.2758ZM27.7677 2.75583L28.7197 2.75583L28.7197 11.3238C28.7197 11.6878 28.7804 11.9258 28.9017 12.0378C29.0324 12.1498 29.1957 12.2058 29.3917 12.2058C29.5597 12.2058 29.7277 12.1872 29.8957 12.1498C30.073 12.1125 30.2177 12.0752 30.3297 12.0378L30.4977 12.8078C30.3204 12.8825 30.101 12.9432 29.8397 12.9898C29.5877 13.0365 29.3684 13.0598 29.1817 13.0598C28.7524 13.0598 28.407 12.9338 28.1457 12.6818C27.8937 12.4298 27.7677 12.0845 27.7677 11.6458L27.7677 2.75583ZM31.7277 15.2158C31.8584 15.2252 31.9844 15.2298 32.1057 15.2298C32.2271 15.2392 32.3157 15.2345 32.3717 15.2158C32.4837 15.2065 32.5864 15.1412 32.6797 15.0198C32.7824 14.9078 32.9037 14.6932 33.0437 14.3758C33.1931 14.0678 33.3937 13.6012 33.6457 12.9758L30.4677 5.68183L31.4757 5.68183L34.1497 11.9958L36.6137 5.68183L37.5657 5.68183L33.7857 15.0898C33.6831 15.3605 33.5104 15.5938 33.2677 15.7898C33.0251 15.9858 32.7031 16.0885 32.3017 16.0978C32.2177 16.1072 32.1291 16.1072 32.0357 16.0978C31.9424 16.0978 31.8397 16.0885 31.7277 16.0698L31.7277 15.2158ZM42.6196 13.1158C42.013 13.1158 41.467 12.9572 40.9816 12.6398C40.5056 12.3225 40.1276 11.9305 39.8476 11.4638L39.8476 15.9578H38.8956L38.8956 5.68183H39.7496L39.7496 7.09583C40.039 6.6385 40.4216 6.26983 40.8976 5.98983C41.383 5.7005 41.9056 5.55583 42.4656 5.55583C42.9696 5.55583 43.4316 5.66316 43.8516 5.87783C44.2716 6.08316 44.6356 6.36316 44.9436 6.71783C45.261 7.0725 45.5036 7.4785 45.6716 7.93583C45.8396 8.38383 45.9236 8.8505 45.9236 9.33583C45.9236 10.0172 45.7836 10.6472 45.5036 11.2258C45.233 11.7952 44.8456 12.2525 44.3416 12.5978C43.847 12.9432 43.273 13.1158 42.6196 13.1158ZM42.3536 12.2758C42.8856 12.2758 43.343 12.1358 43.7256 11.8558C44.1176 11.5665 44.421 11.1978 44.6356 10.7498C44.8503 10.3018 44.9576 9.8305 44.9576 9.33583C44.9576 8.81316 44.8363 8.32783 44.5936 7.87983C44.351 7.43183 44.0243 7.0725 43.6136 6.80183C43.2123 6.53116 42.755 6.39583 42.2416 6.39583C41.9243 6.39583 41.5883 6.47983 41.2336 6.64783C40.8883 6.8065 40.5803 7.02583 40.3096 7.30583C40.0483 7.5765 39.8943 7.87516 39.8476 8.20183L39.8476 10.4418C40.0623 10.9552 40.3983 11.3892 40.8556 11.7438C41.313 12.0985 41.8123 12.2758 42.3536 12.2758ZM53.6683 12.9758H52.7163L52.7163 8.90183C52.7163 7.24983 52.1563 6.42383 51.0363 6.42383C50.6723 6.42383 50.3176 6.51716 49.9723 6.70383C49.6269 6.88116 49.3189 7.1285 49.0483 7.44583C48.7869 7.75383 48.6003 8.1085 48.4883 8.50983L48.4883 12.9758H47.5363L47.5363 2.75583L48.4883 2.75583L48.4883 7.33383C48.7776 6.7925 49.1789 6.36316 49.6923 6.04583C50.2149 5.71916 50.7703 5.55583 51.3583 5.55583C51.9183 5.55583 52.3663 5.69116 52.7023 5.96183C53.0383 6.22316 53.2809 6.59183 53.4303 7.06783C53.5889 7.5345 53.6683 8.0805 53.6683 8.70583L53.6683 12.9758Z" fill="#1F1F1F"/>
<path d="M86.0884 23.3073V19.4236L357.054 19.4236V23.3073" stroke="black"/>
<path d="M198.945 5.68183H199.883L196.747 12.9758H195.921L194.395 9.34983L192.883 12.9758H192.057L188.921 5.68183L189.845 5.68183L192.505 11.9958L193.849 8.70583L192.617 5.69583H193.471L194.395 8.06183L195.333 5.69583L196.173 5.69583L194.955 8.70583L196.299 11.9958L198.945 5.68183ZM204.011 13.1158C203.311 13.1158 202.686 12.9432 202.135 12.5978C201.594 12.2525 201.169 11.7952 200.861 11.2258C200.553 10.6472 200.399 10.0218 200.399 9.34983C200.399 8.6685 200.553 8.04316 200.861 7.47383C201.179 6.89516 201.608 6.43316 202.149 6.08783C202.7 5.73316 203.321 5.55583 204.011 5.55583C204.711 5.55583 205.332 5.73316 205.873 6.08783C206.424 6.43316 206.853 6.89516 207.161 7.47383C207.479 8.04316 207.637 8.6685 207.637 9.34983C207.637 10.0218 207.483 10.6472 207.175 11.2258C206.867 11.7952 206.438 12.2525 205.887 12.5978C205.346 12.9432 204.721 13.1158 204.011 13.1158ZM201.365 9.36383C201.365 9.90516 201.482 10.3998 201.715 10.8478C201.958 11.2865 202.28 11.6365 202.681 11.8978C203.083 12.1498 203.526 12.2758 204.011 12.2758C204.497 12.2758 204.94 12.1452 205.341 11.8838C205.743 11.6225 206.065 11.2678 206.307 10.8198C206.55 10.3718 206.671 9.87716 206.671 9.33583C206.671 8.7945 206.55 8.29983 206.307 7.85183C206.065 7.40383 205.743 7.04916 205.341 6.78783C204.94 6.5265 204.497 6.39583 204.011 6.39583C203.535 6.39583 203.097 6.53116 202.695 6.80183C202.294 7.06316 201.972 7.41783 201.729 7.86583C201.487 8.31383 201.365 8.81316 201.365 9.36383ZM212.87 6.52183C212.235 6.5405 211.675 6.71783 211.19 7.05383C210.714 7.38983 210.378 7.85183 210.182 8.43983L210.182 12.9758L209.23 12.9758L209.23 5.68183H210.126V7.43183C210.378 6.9185 210.709 6.50316 211.12 6.18583C211.54 5.8685 211.983 5.69116 212.45 5.65383C212.543 5.6445 212.622 5.63983 212.688 5.63983C212.753 5.63983 212.814 5.6445 212.87 5.65383V6.52183ZM213.456 9.34983C213.456 8.65916 213.596 8.02916 213.876 7.45983C214.166 6.88116 214.562 6.41916 215.066 6.07383C215.57 5.7285 216.144 5.55583 216.788 5.55583C217.395 5.55583 217.936 5.71916 218.412 6.04583C218.898 6.36316 219.276 6.7505 219.546 7.20783L219.546 2.75583L220.498 2.75583L220.498 11.8278C220.498 12.0798 220.61 12.2105 220.834 12.2198V12.9758C220.648 13.0038 220.503 13.0132 220.4 13.0038C220.195 12.9945 220.018 12.9198 219.868 12.7798C219.728 12.6305 219.658 12.4625 219.658 12.2758V11.5618C219.369 12.0378 218.977 12.4158 218.482 12.6958C217.988 12.9758 217.474 13.1158 216.942 13.1158C216.438 13.1158 215.972 13.0132 215.542 12.8078C215.113 12.6025 214.74 12.3225 214.422 11.9678C214.114 11.6132 213.876 11.2118 213.708 10.7638C213.54 10.3065 213.456 9.83516 213.456 9.34983ZM219.546 10.4698L219.546 8.21583C219.425 7.87983 219.229 7.5765 218.958 7.30583C218.688 7.02583 218.38 6.8065 218.034 6.64783C217.698 6.47983 217.362 6.39583 217.026 6.39583C216.504 6.39583 216.046 6.5405 215.654 6.82983C215.272 7.10983 214.973 7.4785 214.758 7.93583C214.544 8.38383 214.436 8.85516 214.436 9.34983C214.436 9.8725 214.553 10.3578 214.786 10.8058C215.029 11.2538 215.356 11.6132 215.766 11.8838C216.177 12.1452 216.639 12.2758 217.152 12.2758C217.47 12.2758 217.801 12.1965 218.146 12.0378C218.501 11.8698 218.809 11.6505 219.07 11.3798C219.341 11.1092 219.5 10.8058 219.546 10.4698ZM233.505 12.9758H232.553L232.553 8.90183C232.553 8.06183 232.418 7.44116 232.147 7.03983C231.877 6.62916 231.475 6.42383 230.943 6.42383C230.383 6.42383 229.889 6.61983 229.459 7.01183C229.03 7.40383 228.727 7.90783 228.549 8.52383L228.549 12.9758H227.597L227.597 8.90183C227.597 8.04316 227.462 7.41783 227.191 7.02583C226.93 6.6245 226.533 6.42383 226.001 6.42383C225.451 6.42383 224.956 6.61516 224.517 6.99783C224.088 7.3805 223.785 7.8845 223.607 8.50983L223.607 12.9758H222.655L222.655 5.68183H223.523V7.33383C223.822 6.77383 224.214 6.33983 224.699 6.03183C225.185 5.7145 225.721 5.55583 226.309 5.55583C226.916 5.55583 227.406 5.73316 227.779 6.08783C228.153 6.43316 228.381 6.88116 228.465 7.43183C229.137 6.18116 230.075 5.55583 231.279 5.55583C232.101 5.55583 232.675 5.84516 233.001 6.42383C233.337 6.99316 233.505 7.75383 233.505 8.70583L233.505 12.9758ZM234.933 10.8758C234.933 10.4278 235.063 10.0405 235.325 9.71383C235.586 9.37783 235.945 9.1165 236.403 8.92983C236.869 8.74316 237.406 8.64983 238.013 8.64983C238.367 8.64983 238.736 8.6825 239.119 8.74783C239.501 8.80383 239.842 8.88316 240.141 8.98583V8.36983C240.141 7.75383 239.959 7.26383 239.595 6.89983C239.231 6.53583 238.727 6.35383 238.083 6.35383C237.7 6.35383 237.317 6.4285 236.935 6.57783C236.552 6.71783 236.155 6.92783 235.745 7.20783L235.381 6.53583C235.857 6.20916 236.323 5.9665 236.781 5.80783C237.238 5.63983 237.705 5.55583 238.181 5.55583C239.077 5.55583 239.786 5.8125 240.309 6.32583C240.831 6.83916 241.093 7.5485 241.093 8.45383L241.093 11.8278C241.093 12.0798 241.209 12.2105 241.443 12.2198V12.9758C241.237 13.0038 241.093 13.0132 241.009 13.0038C240.775 12.9945 240.598 12.9198 240.477 12.7798C240.355 12.6398 240.29 12.4905 240.281 12.3318L240.267 11.7998C239.94 12.2198 239.515 12.5465 238.993 12.7798C238.47 13.0038 237.938 13.1158 237.397 13.1158C236.921 13.1158 236.496 13.0178 236.123 12.8218C235.749 12.6165 235.455 12.3458 235.241 12.0098C235.035 11.6645 234.933 11.2865 234.933 10.8758ZM239.819 11.4358C240.033 11.1838 240.141 10.9505 240.141 10.7358L240.141 9.67183C239.497 9.41983 238.825 9.29383 238.125 9.29383C237.443 9.29383 236.893 9.42916 236.473 9.69983C236.053 9.9705 235.843 10.3392 235.843 10.8058C235.843 11.2072 235.997 11.5712 236.305 11.8978C236.622 12.2245 237.061 12.3878 237.621 12.3878C238.078 12.3878 238.503 12.2992 238.895 12.1218C239.296 11.9445 239.604 11.7158 239.819 11.4358ZM246.789 6.52183C246.155 6.5405 245.595 6.71783 245.109 7.05383C244.633 7.38983 244.297 7.85183 244.101 8.43983L244.101 12.9758H243.149L243.149 5.68183H244.045V7.43183C244.297 6.9185 244.629 6.50316 245.039 6.18583C245.459 5.8685 245.903 5.69116 246.369 5.65383C246.463 5.6445 246.542 5.63983 246.607 5.63983C246.673 5.63983 246.733 5.6445 246.789 5.65383V6.52183ZM253.266 12.9758L250.564 9.23783L249.01 10.6938V12.9758H248.058L248.058 2.75583L249.01 2.75583L249.01 9.67183L253.14 5.69583H254.19L251.208 8.67783L254.302 12.9758L253.266 12.9758Z" fill="#1F1F1F"/>
<path d="M357.054 164.52L357.054 168.403L0.819837 168.403L0.819837 164.52" stroke="black"/>
<path d="M160.837 174.067H161.789L161.789 182.635C161.789 182.999 161.85 183.237 161.971 183.349C162.102 183.461 162.265 183.517 162.461 183.517C162.629 183.517 162.797 183.498 162.965 183.461C163.142 183.424 163.287 183.386 163.399 183.349L163.567 184.119C163.39 184.194 163.17 184.254 162.909 184.301C162.657 184.348 162.438 184.371 162.251 184.371C161.822 184.371 161.476 184.245 161.215 183.993C160.963 183.741 160.837 183.396 160.837 182.957L160.837 174.067ZM167.717 184.427C167.017 184.427 166.392 184.254 165.841 183.909C165.3 183.564 164.875 183.106 164.567 182.537C164.259 181.958 164.105 181.333 164.105 180.661C164.105 179.98 164.259 179.354 164.567 178.785C164.885 178.206 165.314 177.744 165.855 177.399C166.406 177.044 167.027 176.867 167.717 176.867C168.417 176.867 169.038 177.044 169.579 177.399C170.13 177.744 170.559 178.206 170.867 178.785C171.185 179.354 171.343 179.98 171.343 180.661C171.343 181.333 171.189 181.958 170.881 182.537C170.573 183.106 170.144 183.564 169.593 183.909C169.052 184.254 168.427 184.427 167.717 184.427ZM165.071 180.675C165.071 181.216 165.188 181.711 165.421 182.159C165.664 182.598 165.986 182.948 166.387 183.209C166.789 183.461 167.232 183.587 167.717 183.587C168.203 183.587 168.646 183.456 169.047 183.195C169.449 182.934 169.771 182.579 170.013 182.131C170.256 181.683 170.377 181.188 170.377 180.647C170.377 180.106 170.256 179.611 170.013 179.163C169.771 178.715 169.449 178.36 169.047 178.099C168.646 177.838 168.203 177.707 167.717 177.707C167.241 177.707 166.803 177.842 166.401 178.113C166 178.374 165.678 178.729 165.435 179.177C165.193 179.625 165.071 180.124 165.071 180.675ZM175.862 184.385C175.358 184.385 174.896 184.282 174.476 184.077C174.065 183.872 173.706 183.596 173.398 183.251C173.099 182.896 172.866 182.495 172.698 182.047C172.53 181.599 172.446 181.137 172.446 180.661C172.446 179.98 172.59 179.354 172.88 178.785C173.169 178.206 173.566 177.744 174.07 177.399C174.583 177.044 175.171 176.867 175.834 176.867C176.459 176.867 177 177.026 177.458 177.343C177.924 177.66 178.316 178.052 178.634 178.519L178.634 176.993H179.488L179.488 184.315C179.488 184.996 179.324 185.566 178.998 186.023C178.671 186.48 178.237 186.826 177.696 187.059C177.154 187.292 176.562 187.409 175.918 187.409C175.078 187.409 174.401 187.26 173.888 186.961C173.384 186.662 172.968 186.261 172.642 185.757L173.23 185.295C173.519 185.752 173.902 186.093 174.378 186.317C174.863 186.541 175.376 186.653 175.918 186.653C176.394 186.653 176.828 186.564 177.22 186.387C177.621 186.219 177.938 185.962 178.172 185.617C178.414 185.272 178.536 184.838 178.536 184.315V182.873C178.256 183.33 177.873 183.699 177.388 183.979C176.902 184.25 176.394 184.385 175.862 184.385ZM176.128 183.587C176.51 183.587 176.874 183.498 177.22 183.321C177.565 183.144 177.854 182.92 178.088 182.649C178.33 182.369 178.48 182.08 178.536 181.781V179.527C178.396 179.172 178.195 178.86 177.934 178.589C177.672 178.309 177.374 178.094 177.038 177.945C176.702 177.786 176.361 177.707 176.016 177.707C175.474 177.707 175.008 177.856 174.616 178.155C174.233 178.444 173.934 178.818 173.72 179.275C173.514 179.723 173.412 180.19 173.412 180.675C173.412 181.198 173.533 181.683 173.776 182.131C174.018 182.57 174.345 182.924 174.756 183.195C175.166 183.456 175.624 183.587 176.128 183.587ZM184.698 184.427C183.998 184.427 183.373 184.254 182.822 183.909C182.281 183.564 181.856 183.106 181.548 182.537C181.24 181.958 181.086 181.333 181.086 180.661C181.086 179.98 181.24 179.354 181.548 178.785C181.865 178.206 182.295 177.744 182.836 177.399C183.387 177.044 184.007 176.867 184.698 176.867C185.398 176.867 186.019 177.044 186.56 177.399C187.111 177.744 187.54 178.206 187.848 178.785C188.165 179.354 188.324 179.98 188.324 180.661C188.324 181.333 188.17 181.958 187.862 182.537C187.554 183.106 187.125 183.564 186.574 183.909C186.033 184.254 185.407 184.427 184.698 184.427ZM182.052 180.675C182.052 181.216 182.169 181.711 182.402 182.159C182.645 182.598 182.967 182.948 183.368 183.209C183.769 183.461 184.213 183.587 184.698 183.587C185.183 183.587 185.627 183.456 186.028 183.195C186.429 182.934 186.751 182.579 186.994 182.131C187.237 181.683 187.358 181.188 187.358 180.647C187.358 180.106 187.237 179.611 186.994 179.163C186.751 178.715 186.429 178.36 186.028 178.099C185.627 177.838 185.183 177.707 184.698 177.707C184.222 177.707 183.783 177.842 183.382 178.113C182.981 178.374 182.659 178.729 182.416 179.177C182.173 179.625 182.052 180.124 182.052 180.675Z" fill="#1F1F1F"/>
<path d="M53.5668 80.426C53.1229 80.5936 52.6253 80.4561 52.3096 80.0976C48.3862 75.6429 42.683 72.8392 36.3349 72.8392C29.9869 72.8392 24.2837 75.6429 20.3603 80.0976C20.0445 80.4561 19.5469 80.5936 19.1031 80.426L4.31006 74.8409C3.45541 74.5182 3.14727 73.4511 3.69496 72.7107L15.0749 57.3277C15.3325 56.9795 15.7363 56.7747 16.1651 56.7747L56.5046 56.7747C56.9335 56.7747 57.3373 56.9795 57.5949 57.3277L68.9748 72.7107C69.5225 73.4511 69.2144 74.5182 68.3597 74.8409L53.5668 80.426Z" fill="#194E80"/>
<path d="M16.1651 103.254C16.4717 103.254 16.748 103.44 16.8766 103.722C20.2736 111.184 27.709 116.361 36.3349 116.361C44.9609 116.361 52.3963 111.184 55.7933 103.722C55.9219 103.44 56.1981 103.254 56.5046 103.254C56.9335 103.254 57.3373 103.459 57.5949 103.807L68.9748 119.19C69.5225 119.93 69.2144 120.998 68.3597 121.32L36.8101 133.232C36.5035 133.348 36.1662 133.348 35.8597 133.232L4.31006 121.32C3.45541 120.998 3.14727 119.93 3.69496 119.19L15.0749 103.807C15.3325 103.459 15.7363 103.254 16.1651 103.254Z" fill="#194E80"/>
<path d="M49.2378 94.6C49.2378 101.837 43.461 107.704 36.3349 107.704C29.2089 107.704 23.4321 101.837 23.4321 94.6C23.4321 87.3626 29.2089 81.4956 36.3349 81.4956C43.461 81.4956 49.2378 87.3626 49.2378 94.6Z" fill="#194E80"/>
<path d="M90.0551 111.315V90.6827H86.0885V83.7672H90.0551V81.3096C90.0551 77.5756 91.0419 74.6037 93.0153 72.3937C94.9888 70.1457 97.6135 69.0217 100.889 69.0217C103.494 69.0217 106.198 69.6123 109 70.7935L107.283 77.6518C106.652 77.3851 105.941 77.1755 105.152 77.0231C104.363 76.8326 103.652 76.7374 103.021 76.7374C100.692 76.7374 99.5277 78.1471 99.5277 80.9667V83.7672H106.751V90.6827H99.5277V111.315H90.0551Z" fill="#194E80"/>
<path d="M124.266 111.886C120.754 111.886 117.754 111.181 115.268 109.772C112.781 108.362 110.867 106.495 109.525 104.171C108.222 101.847 107.571 99.3318 107.571 96.6266C107.571 93.7308 108.222 91.0827 109.525 88.6823C110.827 86.2819 112.722 84.3577 115.208 82.9099C117.695 81.462 120.714 80.7381 124.266 80.7381C127.779 80.7381 130.779 81.462 133.265 82.9099C135.752 84.3577 137.627 86.2628 138.89 88.6252C140.192 90.9875 140.843 93.5213 140.843 96.2265C140.843 97.3314 140.765 98.303 140.607 99.1413H117.636C117.794 101.161 118.543 102.704 119.885 103.771C121.267 104.799 122.826 105.314 124.562 105.314C125.944 105.314 127.266 104.99 128.529 104.342C129.792 103.694 130.66 102.818 131.134 101.713L139.186 103.885C137.962 106.247 136.048 108.171 133.443 109.657C130.878 111.143 127.819 111.886 124.266 111.886ZM117.399 93.5403H130.897C130.7 91.6352 129.97 90.1302 128.707 89.0252C127.483 87.8822 125.964 87.3106 124.148 87.3106C122.332 87.3106 120.793 87.8822 119.53 89.0252C118.307 90.1683 117.596 91.6733 117.399 93.5403Z" fill="#194E80"/>
<path d="M163.667 89.1395C161.378 89.1776 159.306 89.5396 157.451 90.2254C155.596 90.9113 154.254 91.94 153.425 93.3117V111.315H143.953V81.3096H152.655V87.3678C153.721 85.3484 155.103 83.7672 156.8 82.6241C158.497 81.4811 160.273 80.8905 162.128 80.8524C162.917 80.8524 163.431 80.8714 163.667 80.9095V89.1395Z" fill="#194E80"/>
<path d="M186.188 89.1395C183.899 89.1776 181.826 89.5396 179.971 90.2254C178.116 90.9113 176.774 91.94 175.946 93.3117V111.315H166.473V81.3096H175.176V87.3678C176.242 85.3484 177.623 83.7672 179.32 82.6241C181.017 81.4811 182.793 80.8905 184.649 80.8524C185.438 80.8524 185.951 80.8714 186.188 80.9095V89.1395Z" fill="#194E80"/>
<path d="M203.563 111.886C200.011 111.886 196.992 111.162 194.505 109.715C192.058 108.267 190.183 106.362 188.881 103.999C187.578 101.637 186.927 99.0841 186.927 96.3408C186.927 93.5594 187.578 90.9875 188.881 88.6252C190.183 86.2628 192.078 84.3577 194.564 82.9099C197.051 81.462 200.05 80.7381 203.563 80.7381C207.076 80.7381 210.076 81.462 212.562 82.9099C215.049 84.3577 216.943 86.2628 218.246 88.6252C219.548 90.9875 220.199 93.5594 220.199 96.3408C220.199 99.0841 219.548 101.637 218.246 103.999C216.943 106.362 215.049 108.267 212.562 109.715C210.076 111.162 207.076 111.886 203.563 111.886ZM196.636 96.3408C196.636 98.665 197.288 100.551 198.59 101.999C199.932 103.447 201.59 104.171 203.563 104.171C205.497 104.171 207.115 103.447 208.418 101.999C209.76 100.551 210.431 98.665 210.431 96.3408C210.431 94.0166 209.76 92.1305 208.418 90.6827C207.115 89.2348 205.497 88.5109 203.563 88.5109C201.59 88.5109 199.932 89.2348 198.59 90.6827C197.288 92.1305 196.636 94.0166 196.636 96.3408Z" fill="#194E80"/>
<path d="M238.573 111.886C235.1 111.886 232.1 111.162 229.574 109.715C227.088 108.267 225.174 106.362 223.832 103.999C222.529 101.637 221.878 99.0651 221.878 96.2836C221.878 93.5403 222.529 90.9875 223.832 88.6252C225.174 86.2628 227.088 84.3577 229.574 82.9099C232.061 81.462 235.061 80.7381 238.573 80.7381C242.125 80.7381 245.125 81.4811 247.572 82.967C250.059 84.4149 251.914 86.32 253.137 88.6823L243.902 91.3685C242.678 89.4634 240.882 88.5109 238.514 88.5109C236.58 88.5109 234.942 89.2157 233.6 90.6255C232.258 92.0353 231.587 93.9213 231.587 96.2836C231.587 98.646 232.258 100.551 233.6 101.999C234.942 103.447 236.58 104.171 238.514 104.171C239.698 104.171 240.784 103.904 241.77 103.371C242.757 102.799 243.487 102.075 243.961 101.199L253.197 103.942C252.052 106.266 250.217 108.171 247.691 109.657C245.204 111.143 242.165 111.886 238.573 111.886Z" fill="#194E80"/>
<path d="M270.865 111.886C267.352 111.886 264.352 111.181 261.866 109.772C259.379 108.362 257.465 106.495 256.123 104.171C254.82 101.847 254.169 99.3318 254.169 96.6266C254.169 93.7308 254.82 91.0827 256.123 88.6823C257.425 86.2819 259.32 84.3577 261.806 82.9099C264.293 81.462 267.312 80.7381 270.865 80.7381C274.377 80.7381 277.377 81.462 279.864 82.9099C282.35 84.3577 284.225 86.2628 285.488 88.6252C286.79 90.9875 287.442 93.5213 287.442 96.2265C287.442 97.3314 287.363 98.303 287.205 99.1413H264.234C264.392 101.161 265.142 102.704 266.484 103.771C267.865 104.799 269.424 105.314 271.161 105.314C272.542 105.314 273.864 104.99 275.127 104.342C276.39 103.694 277.259 102.818 277.732 101.713L285.784 103.885C284.56 106.247 282.646 108.171 280.041 109.657C277.476 111.143 274.417 111.886 270.865 111.886ZM263.997 93.5403H277.495C277.298 91.6352 276.568 90.1302 275.305 89.0252C274.081 87.8822 272.562 87.3106 270.746 87.3106C268.931 87.3106 267.391 87.8822 266.128 89.0252C264.905 90.1683 264.194 91.6733 263.997 93.5403Z" fill="#194E80"/>
<path d="M320.508 111.315H311.035V94.4548C311.035 92.4735 310.64 91.0446 309.851 90.1683C309.101 89.2538 308.095 88.7966 306.832 88.7966C305.529 88.7966 304.207 89.2919 302.865 90.2826C301.523 91.2732 300.576 92.5497 300.023 94.1118V111.315H290.551V81.3096H299.076V86.339C300.221 84.5864 301.839 83.2147 303.931 82.224C306.023 81.2334 308.43 80.7381 311.154 80.7381C313.166 80.7381 314.785 81.1 316.008 81.824C317.271 82.5098 318.219 83.4243 318.85 84.5673C319.521 85.6723 319.955 86.8915 320.153 88.2251C320.389 89.5587 320.508 90.8541 320.508 92.1115V111.315Z" fill="#194E80"/>
<path d="M340.477 111.886C336.965 111.886 333.965 111.181 331.478 109.772C328.992 108.362 327.078 106.495 325.736 104.171C324.433 101.847 323.782 99.3318 323.782 96.6266C323.782 93.7308 324.433 91.0827 325.736 88.6823C327.038 86.2819 328.933 84.3577 331.419 82.9099C333.906 81.462 336.925 80.7381 340.477 80.7381C343.99 80.7381 346.99 81.462 349.476 82.9099C351.963 84.3577 353.838 86.2628 355.101 88.6252C356.403 90.9875 357.054 93.5213 357.054 96.2265C357.054 97.3314 356.975 98.303 356.818 99.1413H333.847C334.004 101.161 334.754 102.704 336.096 103.771C337.478 104.799 339.037 105.314 340.773 105.314C342.155 105.314 343.477 104.99 344.74 104.342C346.003 103.694 346.871 102.818 347.345 101.713L355.397 103.885C354.173 106.247 352.259 108.171 349.654 109.657C347.088 111.143 344.03 111.886 340.477 111.886ZM333.61 93.5403H347.108C346.911 91.6352 346.181 90.1302 344.918 89.0252C343.694 87.8822 342.175 87.3106 340.359 87.3106C338.543 87.3106 337.004 87.8822 335.741 89.0252C334.518 90.1683 333.807 91.6733 333.61 93.5403Z" fill="#194E80"/>
</svg>
