<svg width="501" height="159" viewBox="0 0 501 159" fill="none" xmlns="http://www.w3.org/2000/svg">
<rect y="1" width="501" height="153" rx="4" fill="#F7F7F7"/>
<path opacity="0.1" fill-rule="evenodd" clip-rule="evenodd" d="M486.632 0.192708V2.04459e-05L19.6762 0V0.192708H4C1.79086 0.192708 0 1.98357 0 4.19271V150C0 152.209 1.79087 154 4.00001 154H497C499.209 154 501 152.209 501 150V4.19271C501 1.98357 499.209 0.192708 497 0.192708H486.632ZM472.264 28.7848L28.736 28.7848V125.146L472.264 125.146V28.7848Z" fill="#FF0000"/>
<path d="M94.7506 60.59C94.1775 60.8068 93.535 60.6289 93.1273 60.1653C88.0612 54.4037 80.6969 50.7774 72.5001 50.7774C64.3032 50.7774 56.9389 54.4037 51.8728 60.1653C51.4651 60.629 50.8226 60.8068 50.2494 60.5901L31.148 53.3664C30.0445 52.9491 29.6466 51.5688 30.3538 50.6113L45.0481 30.7153C45.3807 30.265 45.9022 30 46.4559 30L98.5441 30C99.0978 30 99.6193 30.265 99.9519 30.7153L114.646 50.6113C115.353 51.5688 114.956 52.9491 113.852 53.3664L94.7506 60.59Z" fill="#194E80"/>
<path d="M46.4559 90.1151C46.8517 90.1151 47.2085 90.3552 47.3746 90.7207C51.7609 100.371 61.3618 107.067 72.5001 107.067C83.6383 107.067 93.2393 100.371 97.6256 90.7206C97.7917 90.3552 98.1483 90.1151 98.5441 90.1151C99.0978 90.1151 99.6193 90.3801 99.9519 90.8305L114.646 110.726C115.353 111.684 114.956 113.064 113.852 113.482L73.1136 128.888C72.7178 129.037 72.2822 129.037 71.8864 128.888L31.148 113.482C30.0445 113.064 29.6466 111.684 30.3538 110.726L45.0481 90.8305C45.3807 90.3801 45.9022 90.1151 46.4559 90.1151Z" fill="#194E80"/>
<path d="M89.1609 78.9223C89.1609 88.2829 81.7016 95.8712 72.5001 95.8712C63.2986 95.8712 55.8393 88.2829 55.8393 78.9223C55.8393 69.5616 63.2986 61.9734 72.5001 61.9734C81.7016 61.9734 89.1609 69.5616 89.1609 78.9223Z" fill="#194E80"/>
<path d="M136.977 97.2933V71.7827H132V63.232H136.977V60.1933C136.977 55.5764 138.215 51.9018 140.692 49.1693C143.168 46.3898 146.461 45 150.572 45C153.84 45 157.233 45.7302 160.749 47.1907L158.595 55.6707C157.802 55.3409 156.911 55.0818 155.92 54.8933C154.93 54.6578 154.038 54.54 153.246 54.54C150.324 54.54 148.863 56.2831 148.863 59.7693V63.232H157.926V71.7827H148.863V97.2933H136.977Z" fill="#194E80"/>
<path d="M179.905 98C175.497 98 171.733 97.1284 168.613 95.3853C165.493 93.6422 163.091 91.3338 161.407 88.46C159.773 85.5862 158.956 82.4769 158.956 79.132C158.956 75.5516 159.773 72.2773 161.407 69.3093C163.041 66.3413 165.419 63.9622 168.539 62.172C171.659 60.3818 175.447 59.4867 179.905 59.4867C184.312 59.4867 188.076 60.3818 191.196 62.172C194.316 63.9622 196.669 66.3178 198.253 69.2387C199.888 72.1596 200.705 75.2924 200.705 78.6373C200.705 80.0036 200.606 81.2049 200.408 82.2413H171.584C171.783 84.7382 172.724 86.6462 174.407 87.9653C176.141 89.2373 178.097 89.8733 180.276 89.8733C182.009 89.8733 183.668 89.4729 185.253 88.672C186.838 87.8711 187.928 86.7876 188.522 85.4213L198.625 88.1067C197.09 91.0275 194.688 93.4067 191.419 95.244C188.2 97.0813 184.362 98 179.905 98ZM171.287 75.316H188.225C187.977 72.9604 187.061 71.0996 185.476 69.7333C183.941 68.32 182.034 67.6133 179.756 67.6133C177.478 67.6133 175.546 68.32 173.962 69.7333C172.426 71.1467 171.535 73.0076 171.287 75.316Z" fill="#194E80"/>
<path d="M229.344 69.8747C226.471 69.9218 223.871 70.3693 221.544 71.2173C219.216 72.0653 217.532 73.3373 216.492 75.0333V97.2933H204.606V60.1933H215.526V67.684C216.863 65.1871 218.597 63.232 220.726 61.8187C222.856 60.4053 225.085 59.6751 227.412 59.628C228.403 59.628 229.047 59.6516 229.344 59.6987V69.8747Z" fill="#194E80"/>
<path d="M257.602 69.8747C254.729 69.9218 252.129 70.3693 249.802 71.2173C247.474 72.0653 245.79 73.3373 244.75 75.0333V97.2933H232.864V60.1933H243.784V67.684C245.121 65.1871 246.855 63.232 248.984 61.8187C251.114 60.4053 253.343 59.6751 255.67 59.628C256.661 59.628 257.305 59.6516 257.602 59.6987V69.8747Z" fill="#194E80"/>
<path d="M279.404 98C274.947 98 271.158 97.1049 268.038 95.3147C264.967 93.5244 262.615 91.1689 260.981 88.248C259.346 85.3271 258.529 82.1707 258.529 78.7787C258.529 75.3396 259.346 72.1596 260.981 69.2387C262.615 66.3178 264.992 63.9622 268.112 62.172C271.232 60.3818 274.996 59.4867 279.404 59.4867C283.811 59.4867 287.575 60.3818 290.695 62.172C293.815 63.9622 296.193 66.3178 297.827 69.2387C299.461 72.1596 300.278 75.3396 300.278 78.7787C300.278 82.1707 299.461 85.3271 297.827 88.248C296.193 91.1689 293.815 93.5244 290.695 95.3147C287.575 97.1049 283.811 98 279.404 98ZM270.712 78.7787C270.712 81.6524 271.529 83.9844 273.164 85.7747C274.847 87.5649 276.928 88.46 279.404 88.46C281.83 88.46 283.861 87.5649 285.495 85.7747C287.179 83.9844 288.021 81.6524 288.021 78.7787C288.021 75.9049 287.179 73.5729 285.495 71.7827C283.861 69.9924 281.83 69.0973 279.404 69.0973C276.928 69.0973 274.847 69.9924 273.164 71.7827C271.529 73.5729 270.712 75.9049 270.712 78.7787Z" fill="#194E80"/>
<path d="M323.333 98C318.975 98 315.211 97.1049 312.042 95.3147C308.922 93.5244 306.52 91.1689 304.836 88.248C303.202 85.3271 302.384 82.1471 302.384 78.708C302.384 75.316 303.202 72.1596 304.836 69.2387C306.52 66.3178 308.922 63.9622 312.042 62.172C315.162 60.3818 318.926 59.4867 323.333 59.4867C327.791 59.4867 331.554 60.4053 334.625 62.2427C337.745 64.0329 340.073 66.3884 341.608 69.3093L330.019 72.6307C328.484 70.2751 326.231 69.0973 323.259 69.0973C320.832 69.0973 318.777 69.9689 317.093 71.712C315.409 73.4551 314.568 75.7871 314.568 78.708C314.568 81.6289 315.409 83.9844 317.093 85.7747C318.777 87.5649 320.832 88.46 323.259 88.46C324.745 88.46 326.107 88.1302 327.345 87.4707C328.583 86.764 329.499 85.8689 330.093 84.7853L341.682 88.1773C340.246 91.0511 337.943 93.4067 334.774 95.244C331.654 97.0813 327.84 98 323.333 98Z" fill="#194E80"/>
<path d="M363.852 98C359.444 98 355.68 97.1284 352.56 95.3853C349.44 93.6422 347.038 91.3338 345.354 88.46C343.72 85.5862 342.903 82.4769 342.903 79.132C342.903 75.5516 343.72 72.2773 345.354 69.3093C346.989 66.3413 349.366 63.9622 352.486 62.172C355.606 60.3818 359.394 59.4867 363.852 59.4867C368.259 59.4867 372.023 60.3818 375.143 62.172C378.263 63.9622 380.616 66.3178 382.201 69.2387C383.835 72.1596 384.652 75.2924 384.652 78.6373C384.652 80.0036 384.553 81.2049 384.355 82.2413H355.532C355.73 84.7382 356.671 86.6462 358.354 87.9653C360.088 89.2373 362.044 89.8733 364.223 89.8733C365.956 89.8733 367.616 89.4729 369.2 88.672C370.785 87.8711 371.875 86.7876 372.469 85.4213L382.572 88.1067C381.037 91.0275 378.635 93.4067 375.366 95.244C372.147 97.0813 368.309 98 363.852 98ZM355.234 75.316H372.172C371.924 72.9604 371.008 71.0996 369.423 69.7333C367.888 68.32 365.981 67.6133 363.703 67.6133C361.425 67.6133 359.493 68.32 357.909 69.7333C356.373 71.1467 355.482 73.0076 355.234 75.316Z" fill="#194E80"/>
<path d="M426.142 97.2933H414.256V76.4467C414.256 73.9969 413.761 72.2302 412.771 71.1467C411.83 70.016 410.567 69.4507 408.982 69.4507C407.348 69.4507 405.689 70.0631 404.005 71.288C402.321 72.5129 401.132 74.0911 400.439 76.0227V97.2933H388.553V60.1933H399.251V66.412C400.687 64.2449 402.717 62.5489 405.342 61.324C407.967 60.0991 410.988 59.4867 414.405 59.4867C416.931 59.4867 418.961 59.9342 420.497 60.8293C422.081 61.6773 423.27 62.808 424.062 64.2213C424.904 65.5876 425.449 67.0951 425.697 68.744C425.994 70.3929 426.142 71.9947 426.142 73.5493V97.2933Z" fill="#194E80"/>
<path d="M451.2 98C446.792 98 443.028 97.1284 439.908 95.3853C436.788 93.6422 434.386 91.3338 432.702 88.46C431.068 85.5862 430.251 82.4769 430.251 79.132C430.251 75.5516 431.068 72.2773 432.702 69.3093C434.337 66.3413 436.714 63.9622 439.834 62.172C442.954 60.3818 446.742 59.4867 451.2 59.4867C455.607 59.4867 459.371 60.3818 462.491 62.172C465.611 63.9622 467.964 66.3178 469.549 69.2387C471.183 72.1596 472 75.2924 472 78.6373C472 80.0036 471.901 81.2049 471.703 82.2413H442.88C443.078 84.7382 444.019 86.6462 445.702 87.9653C447.436 89.2373 449.392 89.8733 451.571 89.8733C453.304 89.8733 454.964 89.4729 456.548 88.672C458.133 87.8711 459.223 86.7876 459.817 85.4213L469.92 88.1067C468.385 91.0275 465.983 93.4067 462.714 95.244C459.495 97.0813 455.657 98 451.2 98ZM442.582 75.316H459.52C459.272 72.9604 458.356 71.0996 456.771 69.7333C455.236 68.32 453.329 67.6133 451.051 67.6133C448.773 67.6133 446.841 68.32 445.257 69.7333C443.721 71.1467 442.83 73.0076 442.582 75.316Z" fill="#194E80"/>
<path d="M5.1938 103V76.1689H0V67.1757H5.1938V63.9797C5.1938 59.1239 6.48579 55.259 9.06977 52.3851C11.6537 49.4617 15.0904 48 19.3798 48C22.7907 48 26.3308 48.768 30 50.3041L27.7519 59.223C26.9251 58.8761 25.9948 58.6036 24.9612 58.4054C23.9276 58.1577 22.9974 58.0338 22.1705 58.0338C19.1214 58.0338 17.5969 59.8671 17.5969 63.5338V67.1757H27.0543V76.1689H17.5969V103H5.1938Z" fill="#FC92B8"/>
<path d="M40.7974 5.74257L67.4491 5.74257L67.4491 0.618651L76.3822 0.618652L76.3822 5.74257L79.5568 5.74257C84.3802 5.74257 88.2192 7.01718 91.0739 9.56639C93.9777 12.1156 95.4297 15.5061 95.4297 19.7378C95.4297 23.1027 94.6668 26.5951 93.141 30.215L84.2817 27.9972C84.6263 27.1815 84.897 26.2637 85.0938 25.2441C85.3399 24.2244 85.463 23.3066 85.463 22.4909C85.463 19.4828 83.6419 17.9788 79.9998 17.9788L76.3822 17.9788L76.3822 27.3089L67.4491 27.3089L67.4491 17.9788L40.7974 17.9788L40.7974 5.74257Z" fill="#FC92B8"/>
<path d="M41 134.194L67.3432 134.194L67.3432 129L76.173 129L76.173 134.194L79.3108 134.194C84.0784 134.194 87.873 135.486 90.6946 138.07C93.5649 140.654 95 144.09 95 148.38C95 151.791 94.2459 155.331 92.7378 159L83.9811 156.752C84.3216 155.925 84.5892 154.995 84.7838 153.961C85.027 152.928 85.1486 151.997 85.1486 151.171C85.1486 148.121 83.3486 146.597 79.7486 146.597L76.173 146.597L76.173 156.054L67.3432 156.054L67.3432 146.597L41 146.597L41 134.194Z" fill="#FC92B8"/>
<path d="M477.021 98V72.1446H472V63.4784H477.021V60.3986C477.021 55.7194 478.27 51.995 480.767 49.2257C483.265 46.4086 486.587 45 490.734 45C494.031 45 497.453 45.7401 501 47.2203L498.827 55.8149C498.028 55.4806 497.128 55.218 496.129 55.027C495.13 54.7883 494.231 54.6689 493.432 54.6689C490.484 54.6689 489.01 56.4356 489.01 59.9689V63.4784H498.152V72.1446H489.01V98H477.021Z" fill="#FC92B8"/>
</svg>
