<svg width="1002" height="272" viewBox="0 0 1002 272" fill="none" xmlns="http://www.w3.org/2000/svg">
<rect width="1002" height="271" transform="translate(0 0.5)" fill="#7DF4C9"/>
<path d="M335.132 124.663C334.575 124.873 333.951 124.701 333.555 124.251C328.634 118.664 321.482 115.148 313.52 115.148C305.558 115.148 298.406 118.664 293.485 124.251C293.089 124.701 292.465 124.873 291.908 124.663L273.355 117.658C272.283 117.254 271.897 115.915 272.584 114.987L286.856 95.6936C287.179 95.2569 287.686 95 288.223 95L338.816 95C339.354 95 339.861 95.2569 340.184 95.6937L354.456 114.987C355.143 115.915 354.757 117.254 353.685 117.658L335.132 124.663Z" fill="#194E80"/>
<path d="M288.223 153.293C288.608 153.293 288.954 153.526 289.116 153.881C293.376 163.239 302.702 169.732 313.52 169.732C324.339 169.732 333.664 163.239 337.924 153.881C338.086 153.526 338.432 153.293 338.816 153.293C339.354 153.293 339.861 153.55 340.184 153.987L354.456 173.28C355.143 174.209 354.757 175.547 353.685 175.952L314.116 190.891C313.731 191.036 313.308 191.036 312.924 190.891L273.355 175.952C272.283 175.547 271.897 174.209 272.584 173.28L286.856 153.987C287.179 153.55 287.686 153.293 288.223 153.293Z" fill="#194E80"/>
<path d="M329.703 142.44C329.703 151.517 322.457 158.875 313.52 158.875C304.583 158.875 297.338 151.517 297.338 142.44C297.338 133.363 304.583 126.004 313.52 126.004C322.457 126.004 329.703 133.363 329.703 142.44Z" fill="#194E80"/>
<path d="M380.895 163.403V137.527H375.92V128.854H380.895V125.771C380.895 121.088 382.132 117.361 384.608 114.589C387.083 111.77 390.374 110.36 394.483 110.36C397.75 110.36 401.141 111.101 404.656 112.582L402.502 121.184C401.71 120.849 400.819 120.586 399.829 120.395C398.839 120.156 397.948 120.037 397.156 120.037C394.236 120.037 392.775 121.805 392.775 125.341V128.854H401.834V137.527H392.775V163.403H380.895Z" fill="#194E80"/>
<path d="M423.802 164.12C419.396 164.12 415.634 163.236 412.516 161.468C409.397 159.7 406.996 157.358 405.313 154.443C403.68 151.528 402.863 148.374 402.863 144.982C402.863 141.35 403.68 138.029 405.313 135.018C406.947 132.007 409.323 129.594 412.442 127.778C415.56 125.962 419.347 125.055 423.802 125.055C428.208 125.055 431.97 125.962 435.088 127.778C438.207 129.594 440.558 131.984 442.142 134.946C443.776 137.909 444.593 141.087 444.593 144.48C444.593 145.866 444.494 147.084 444.296 148.135H415.486C415.684 150.668 416.624 152.604 418.307 153.942C420.04 155.232 421.995 155.877 424.173 155.877C425.906 155.877 427.564 155.471 429.148 154.658C430.732 153.846 431.821 152.747 432.415 151.361L442.514 154.085C440.979 157.048 438.578 159.461 435.311 161.325C432.094 163.188 428.257 164.12 423.802 164.12ZM415.189 141.111H432.118C431.871 138.721 430.955 136.834 429.371 135.448C427.836 134.015 425.931 133.298 423.654 133.298C421.377 133.298 419.446 134.015 417.862 135.448C416.327 136.882 415.436 138.769 415.189 141.111Z" fill="#194E80"/>
<path d="M473.218 135.591C470.347 135.639 467.748 136.093 465.421 136.953C463.095 137.814 461.412 139.104 460.372 140.824V163.403H448.492V125.771H459.407V133.369C460.744 130.837 462.476 128.854 464.605 127.42C466.733 125.986 468.961 125.246 471.287 125.198C472.277 125.198 472.921 125.222 473.218 125.27V135.591Z" fill="#194E80"/>
<path d="M501.463 135.591C498.592 135.639 495.993 136.093 493.666 136.953C491.34 137.814 489.657 139.104 488.617 140.824V163.403H476.737V125.771H487.652V133.369C488.988 130.837 490.721 128.854 492.849 127.42C494.978 125.986 497.206 125.246 499.532 125.198C500.522 125.198 501.166 125.222 501.463 125.27V135.591Z" fill="#194E80"/>
<path d="M523.254 164.12C518.799 164.12 515.012 163.212 511.894 161.396C508.825 159.58 506.473 157.191 504.84 154.228C503.206 151.265 502.39 148.064 502.39 144.623C502.39 141.135 503.206 137.909 504.84 134.946C506.473 131.984 508.85 129.594 511.968 127.778C515.087 125.962 518.849 125.055 523.254 125.055C527.66 125.055 531.422 125.962 534.541 127.778C537.659 129.594 540.035 131.984 541.669 134.946C543.302 137.909 544.119 141.135 544.119 144.623C544.119 148.064 543.302 151.265 541.669 154.228C540.035 157.191 537.659 159.58 534.541 161.396C531.422 163.212 527.66 164.12 523.254 164.12ZM514.567 144.623C514.567 147.538 515.384 149.904 517.017 151.719C518.7 153.535 520.779 154.443 523.254 154.443C525.68 154.443 527.71 153.535 529.343 151.719C531.026 149.904 531.868 147.538 531.868 144.623C531.868 141.708 531.026 139.343 529.343 137.527C527.71 135.711 525.68 134.803 523.254 134.803C520.779 134.803 518.7 135.711 517.017 137.527C515.384 139.343 514.567 141.708 514.567 144.623Z" fill="#194E80"/>
<path d="M567.163 164.12C562.807 164.12 559.045 163.212 555.877 161.396C552.758 159.58 550.358 157.191 548.675 154.228C547.041 151.265 546.224 148.04 546.224 144.551C546.224 141.111 547.041 137.909 548.675 134.946C550.358 131.984 552.758 129.594 555.877 127.778C558.996 125.962 562.758 125.055 567.163 125.055C571.618 125.055 575.381 125.986 578.45 127.85C581.568 129.666 583.895 132.055 585.429 135.018L573.846 138.387C572.312 135.998 570.059 134.803 567.089 134.803C564.664 134.803 562.609 135.687 560.926 137.455C559.243 139.223 558.402 141.589 558.402 144.551C558.402 147.514 559.243 149.904 560.926 151.719C562.609 153.535 564.664 154.443 567.089 154.443C568.574 154.443 569.935 154.109 571.173 153.44C572.411 152.723 573.326 151.815 573.92 150.716L585.504 154.157C584.068 157.072 581.766 159.461 578.598 161.325C575.48 163.188 571.668 164.12 567.163 164.12Z" fill="#194E80"/>
<path d="M607.663 164.12C603.257 164.12 599.495 163.236 596.376 161.468C593.258 159.7 590.857 157.358 589.174 154.443C587.54 151.528 586.724 148.374 586.724 144.982C586.724 141.35 587.54 138.029 589.174 135.018C590.807 132.007 593.183 129.594 596.302 127.778C599.421 125.962 603.207 125.055 607.663 125.055C612.068 125.055 615.83 125.962 618.949 127.778C622.067 129.594 624.419 131.984 626.003 134.946C627.636 137.909 628.453 141.087 628.453 144.48C628.453 145.866 628.354 147.084 628.156 148.135H599.346C599.544 150.668 600.485 152.604 602.168 153.942C603.9 155.232 605.856 155.877 608.034 155.877C609.766 155.877 611.425 155.471 613.009 154.658C614.593 153.846 615.682 152.747 616.276 151.361L626.374 154.085C624.84 157.048 622.439 159.461 619.172 161.325C615.954 163.188 612.118 164.12 607.663 164.12ZM599.049 141.111H615.979C615.731 138.721 614.816 136.834 613.231 135.448C611.697 134.015 609.791 133.298 607.514 133.298C605.237 133.298 603.306 134.015 601.722 135.448C600.188 136.882 599.297 138.769 599.049 141.111Z" fill="#194E80"/>
<path d="M669.924 163.403H658.044V142.258C658.044 139.773 657.549 137.981 656.559 136.882C655.618 135.735 654.356 135.161 652.772 135.161C651.138 135.161 649.48 135.783 647.797 137.025C646.114 138.268 644.926 139.868 644.233 141.828V163.403H632.353V125.771H643.045V132.079C644.48 129.881 646.51 128.161 649.133 126.918C651.757 125.676 654.777 125.055 658.192 125.055C660.717 125.055 662.746 125.508 664.281 126.416C665.865 127.277 667.053 128.423 667.845 129.857C668.686 131.243 669.231 132.772 669.478 134.445C669.775 136.117 669.924 137.742 669.924 139.319V163.403Z" fill="#194E80"/>
<path d="M694.97 164.12C690.564 164.12 686.802 163.236 683.683 161.468C680.565 159.7 678.164 157.358 676.481 154.443C674.847 151.528 674.03 148.374 674.03 144.982C674.03 141.35 674.847 138.029 676.481 135.018C678.114 132.007 680.49 129.594 683.609 127.778C686.728 125.962 690.514 125.055 694.97 125.055C699.375 125.055 703.137 125.962 706.256 127.778C709.374 129.594 711.726 131.984 713.31 134.946C714.943 137.909 715.76 141.087 715.76 144.48C715.76 145.866 715.661 147.084 715.463 148.135H686.653C686.851 150.668 687.792 152.604 689.475 153.942C691.207 155.232 693.163 155.877 695.341 155.877C697.073 155.877 698.732 155.471 700.316 154.658C701.9 153.846 702.989 152.747 703.583 151.361L713.681 154.085C712.146 157.048 709.746 159.461 706.479 161.325C703.261 163.188 699.425 164.12 694.97 164.12ZM686.356 141.111H703.286C703.038 138.721 702.122 136.834 700.538 135.448C699.004 134.015 697.098 133.298 694.821 133.298C692.544 133.298 690.613 134.015 689.029 135.448C687.495 136.882 686.604 138.769 686.356 141.111Z" fill="#194E80"/>
</svg>
