<svg width="401" height="149" viewBox="0 0 401 149" fill="none" xmlns="http://www.w3.org/2000/svg">
<path d="M103.82 147.92L100.705 147.92L100.705 104.222L103.82 104.222" stroke="black"/>
<path d="M28.5133 122.706H29.4513L26.3153 130H25.4893L23.9633 126.374L22.4513 130H21.6253L18.4893 122.706H19.4133L22.0733 129.02L23.4173 125.73L22.1853 122.72H23.0393L23.9633 125.086L24.9013 122.72L25.7413 122.72L24.5233 125.73L25.8673 129.02L28.5133 122.706ZM33.5799 130.14C32.8799 130.14 32.2545 129.967 31.7039 129.622C31.1625 129.277 30.7379 128.819 30.4299 128.25C30.1219 127.671 29.9679 127.046 29.9679 126.374C29.9679 125.693 30.1219 125.067 30.4299 124.498C30.7472 123.919 31.1765 123.457 31.7179 123.112C32.2685 122.757 32.8892 122.58 33.5799 122.58C34.2799 122.58 34.9005 122.757 35.4419 123.112C35.9925 123.457 36.4219 123.919 36.7299 124.498C37.0472 125.067 37.2059 125.693 37.2059 126.374C37.2059 127.046 37.0519 127.671 36.7439 128.25C36.4359 128.819 36.0065 129.277 35.4559 129.622C34.9145 129.967 34.2892 130.14 33.5799 130.14ZM30.9339 126.388C30.9339 126.929 31.0505 127.424 31.2839 127.872C31.5265 128.311 31.8485 128.661 32.2499 128.922C32.6512 129.174 33.0945 129.3 33.5799 129.3C34.0652 129.3 34.5085 129.169 34.9099 128.908C35.3112 128.647 35.6332 128.292 35.8759 127.844C36.1185 127.396 36.2399 126.901 36.2399 126.36C36.2399 125.819 36.1185 125.324 35.8759 124.876C35.6332 124.428 35.3112 124.073 34.9099 123.812C34.5085 123.551 34.0652 123.42 33.5799 123.42C33.1039 123.42 32.6652 123.555 32.2639 123.826C31.8625 124.087 31.5405 124.442 31.2979 124.89C31.0552 125.338 30.9339 125.837 30.9339 126.388ZM42.438 123.546C41.8034 123.565 41.2434 123.742 40.758 124.078C40.282 124.414 39.946 124.876 39.75 125.464L39.75 130H38.798L38.798 122.706H39.694L39.694 124.456C39.946 123.943 40.2774 123.527 40.688 123.21C41.108 122.893 41.5514 122.715 42.018 122.678C42.1114 122.669 42.1907 122.664 42.256 122.664C42.3214 122.664 42.382 122.669 42.438 122.678L42.438 123.546ZM43.0248 126.374C43.0248 125.683 43.1648 125.053 43.4448 124.484C43.7342 123.905 44.1308 123.443 44.6348 123.098C45.1388 122.753 45.7128 122.58 46.3568 122.58C46.9635 122.58 47.5048 122.743 47.9808 123.07C48.4662 123.387 48.8442 123.775 49.1148 124.232L49.1148 119.78H50.0668L50.0668 128.852C50.0668 129.104 50.1788 129.235 50.4028 129.244L50.4028 130C50.2162 130.028 50.0715 130.037 49.9688 130.028C49.7635 130.019 49.5862 129.944 49.4368 129.804C49.2968 129.655 49.2268 129.487 49.2268 129.3L49.2268 128.586C48.9375 129.062 48.5455 129.44 48.0508 129.72C47.5562 130 47.0428 130.14 46.5108 130.14C46.0068 130.14 45.5402 130.037 45.1108 129.832C44.6815 129.627 44.3082 129.347 43.9908 128.992C43.6828 128.637 43.4448 128.236 43.2768 127.788C43.1088 127.331 43.0248 126.859 43.0248 126.374ZM49.1148 127.494L49.1148 125.24C48.9935 124.904 48.7975 124.601 48.5268 124.33C48.2562 124.05 47.9482 123.831 47.6028 123.672C47.2668 123.504 46.9308 123.42 46.5948 123.42C46.0722 123.42 45.6148 123.565 45.2228 123.854C44.8402 124.134 44.5415 124.503 44.3268 124.96C44.1122 125.408 44.0048 125.879 44.0048 126.374C44.0048 126.897 44.1215 127.382 44.3548 127.83C44.5975 128.278 44.9242 128.637 45.3348 128.908C45.7455 129.169 46.2075 129.3 46.7208 129.3C47.0382 129.3 47.3695 129.221 47.7148 129.062C48.0695 128.894 48.3775 128.675 48.6388 128.404C48.9095 128.133 49.0682 127.83 49.1148 127.494ZM63.0738 130H62.1218L62.1218 125.926C62.1218 125.086 61.9865 124.465 61.7158 124.064C61.4452 123.653 61.0438 123.448 60.5118 123.448C59.9518 123.448 59.4572 123.644 59.0278 124.036C58.5985 124.428 58.2952 124.932 58.1178 125.548L58.1178 130H57.1658L57.1658 125.926C57.1658 125.067 57.0305 124.442 56.7598 124.05C56.4985 123.649 56.1018 123.448 55.5698 123.448C55.0192 123.448 54.5245 123.639 54.0858 124.022C53.6565 124.405 53.3532 124.909 53.1758 125.534L53.1758 130H52.2238L52.2238 122.706H53.0918L53.0918 124.358C53.3905 123.798 53.7825 123.364 54.2678 123.056C54.7532 122.739 55.2898 122.58 55.8778 122.58C56.4845 122.58 56.9745 122.757 57.3478 123.112C57.7212 123.457 57.9498 123.905 58.0338 124.456C58.7058 123.205 59.6438 122.58 60.8478 122.58C61.6692 122.58 62.2432 122.869 62.5698 123.448C62.9058 124.017 63.0738 124.778 63.0738 125.73L63.0738 130ZM64.5011 127.9C64.5011 127.452 64.6317 127.065 64.8931 126.738C65.1544 126.402 65.5137 126.141 65.9711 125.954C66.4377 125.767 66.9744 125.674 67.5811 125.674C67.9357 125.674 68.3044 125.707 68.6871 125.772C69.0697 125.828 69.4104 125.907 69.7091 126.01L69.7091 125.394C69.7091 124.778 69.5271 124.288 69.1631 123.924C68.7991 123.56 68.2951 123.378 67.6511 123.378C67.2684 123.378 66.8857 123.453 66.5031 123.602C66.1204 123.742 65.7237 123.952 65.3131 124.232L64.9491 123.56C65.4251 123.233 65.8917 122.991 66.3491 122.832C66.8064 122.664 67.2731 122.58 67.7491 122.58C68.6451 122.58 69.3544 122.837 69.8771 123.35C70.3997 123.863 70.6611 124.573 70.6611 125.478L70.6611 128.852C70.6611 129.104 70.7777 129.235 71.0111 129.244L71.0111 130C70.8057 130.028 70.6611 130.037 70.5771 130.028C70.3437 130.019 70.1664 129.944 70.0451 129.804C69.9237 129.664 69.8584 129.515 69.8491 129.356L69.8351 128.824C69.5084 129.244 69.0837 129.571 68.5611 129.804C68.0384 130.028 67.5064 130.14 66.9651 130.14C66.4891 130.14 66.0644 130.042 65.6911 129.846C65.3177 129.641 65.0237 129.37 64.8091 129.034C64.6037 128.689 64.5011 128.311 64.5011 127.9ZM69.3871 128.46C69.6017 128.208 69.7091 127.975 69.7091 127.76L69.7091 126.696C69.0651 126.444 68.3931 126.318 67.6931 126.318C67.0117 126.318 66.4611 126.453 66.0411 126.724C65.6211 126.995 65.4111 127.363 65.4111 127.83C65.4111 128.231 65.5651 128.595 65.8731 128.922C66.1904 129.249 66.6291 129.412 67.1891 129.412C67.6464 129.412 68.0711 129.323 68.4631 129.146C68.8644 128.969 69.1724 128.74 69.3871 128.46ZM76.358 123.546C75.7233 123.565 75.1633 123.742 74.678 124.078C74.202 124.414 73.866 124.876 73.67 125.464L73.67 130H72.718L72.718 122.706H73.614L73.614 124.456C73.866 123.943 74.1973 123.527 74.608 123.21C75.028 122.893 75.4713 122.715 75.938 122.678C76.0313 122.669 76.1106 122.664 76.176 122.664C76.2413 122.664 76.302 122.669 76.358 122.678L76.358 123.546ZM82.8342 130L80.1322 126.262L78.5782 127.718L78.5782 130H77.6262L77.6262 119.78H78.5782L78.5782 126.696L82.7082 122.72H83.7582L80.7762 125.702L83.8702 130H82.8342Z" fill="#1F1F1F"/>
<path d="M103.82 91.4348L100.705 91.4348L100.705 0.499958L103.82 0.499958" stroke="black"/>
<path d="M52.349 55.098C51.845 55.098 51.383 54.9953 50.963 54.79C50.5524 54.5847 50.193 54.3093 49.885 53.964C49.5864 53.6093 49.353 53.208 49.185 52.76C49.017 52.312 48.933 51.85 48.933 51.374C48.933 50.6927 49.0777 50.0673 49.367 49.498C49.6564 48.9193 50.053 48.4573 50.557 48.112C51.0704 47.7573 51.6584 47.58 52.321 47.58C52.9464 47.58 53.4877 47.7387 53.945 48.056C54.4117 48.3733 54.8037 48.7653 55.121 49.232L55.121 47.706H55.975L55.975 55.028C55.975 55.7093 55.8117 56.2787 55.485 56.736C55.1584 57.1933 54.7244 57.5387 54.183 57.772C53.6417 58.0053 53.049 58.122 52.405 58.122C51.565 58.122 50.8884 57.9727 50.375 57.674C49.871 57.3753 49.4557 56.974 49.129 56.47L49.717 56.008C50.0064 56.4653 50.389 56.806 50.865 57.03C51.3504 57.254 51.8637 57.366 52.405 57.366C52.881 57.366 53.315 57.2773 53.707 57.1C54.1084 56.932 54.4257 56.6753 54.659 56.33C54.9017 55.9847 55.023 55.5507 55.023 55.028L55.023 53.586C54.743 54.0433 54.3604 54.412 53.875 54.692C53.3897 54.9627 52.881 55.098 52.349 55.098ZM52.615 54.3C52.9977 54.3 53.3617 54.2113 53.707 54.034C54.0524 53.8567 54.3417 53.6327 54.575 53.362C54.8177 53.082 54.967 52.7927 55.023 52.494L55.023 50.24C54.883 49.8853 54.6824 49.5727 54.421 49.302C54.1597 49.022 53.861 48.8073 53.525 48.658C53.189 48.4993 52.8484 48.42 52.503 48.42C51.9617 48.42 51.495 48.5693 51.103 48.868C50.7204 49.1573 50.4217 49.5307 50.207 49.988C50.0017 50.436 49.899 50.9027 49.899 51.388C49.899 51.9107 50.0204 52.396 50.263 52.844C50.5057 53.2827 50.8324 53.6373 51.243 53.908C51.6537 54.1693 52.111 54.3 52.615 54.3ZM58.1193 44.78H59.0713L59.0713 53.348C59.0713 53.712 59.132 53.95 59.2533 54.062C59.384 54.174 59.5473 54.23 59.7433 54.23C59.9113 54.23 60.0793 54.2113 60.2473 54.174C60.4247 54.1367 60.5693 54.0993 60.6813 54.062L60.8493 54.832C60.672 54.9067 60.4527 54.9673 60.1913 55.014C59.9393 55.0607 59.72 55.084 59.5333 55.084C59.104 55.084 58.7587 54.958 58.4973 54.706C58.2453 54.454 58.1193 54.1087 58.1193 53.67L58.1193 44.78ZM62.0794 57.24C62.21 57.2493 62.336 57.254 62.4574 57.254C62.5787 57.2633 62.6674 57.2587 62.7234 57.24C62.8354 57.2307 62.938 57.1653 63.0314 57.044C63.134 56.932 63.2554 56.7173 63.3954 56.4C63.5447 56.092 63.7454 55.6253 63.9974 55L60.8194 47.706H61.8274L64.5014 54.02L66.9654 47.706H67.9174L64.1374 57.114C64.0347 57.3847 63.862 57.618 63.6194 57.814C63.3767 58.01 63.0547 58.1127 62.6534 58.122C62.5694 58.1313 62.4807 58.1313 62.3874 58.122C62.294 58.122 62.1914 58.1127 62.0794 58.094L62.0794 57.24ZM72.9713 55.14C72.3646 55.14 71.8186 54.9813 71.3333 54.664C70.8573 54.3467 70.4793 53.9547 70.1993 53.488L70.1993 57.982H69.2473L69.2473 47.706H70.1013L70.1013 49.12C70.3906 48.6627 70.7733 48.294 71.2493 48.014C71.7346 47.7247 72.2573 47.58 72.8173 47.58C73.3213 47.58 73.7833 47.6873 74.2033 47.902C74.6233 48.1073 74.9873 48.3873 75.2953 48.742C75.6126 49.0967 75.8553 49.5027 76.0233 49.96C76.1913 50.408 76.2753 50.8747 76.2753 51.36C76.2753 52.0413 76.1353 52.6713 75.8553 53.25C75.5846 53.8193 75.1973 54.2767 74.6933 54.622C74.1986 54.9673 73.6246 55.14 72.9713 55.14ZM72.7053 54.3C73.2373 54.3 73.6946 54.16 74.0773 53.88C74.4693 53.5907 74.7726 53.222 74.9873 52.774C75.2019 52.326 75.3093 51.8547 75.3093 51.36C75.3093 50.8373 75.1879 50.352 74.9453 49.904C74.7026 49.456 74.3759 49.0967 73.9653 48.826C73.5639 48.5553 73.1066 48.42 72.5933 48.42C72.2759 48.42 71.9399 48.504 71.5853 48.672C71.2399 48.8307 70.9319 49.05 70.6613 49.33C70.3999 49.6007 70.2459 49.8993 70.1993 50.226L70.1993 52.466C70.4139 52.9793 70.7499 53.4133 71.2073 53.768C71.6646 54.1227 72.1639 54.3 72.7053 54.3ZM84.0199 55H83.0679L83.0679 50.926C83.0679 49.274 82.5079 48.448 81.3879 48.448C81.0239 48.448 80.6692 48.5413 80.3239 48.728C79.9786 48.9053 79.6706 49.1527 79.3999 49.47C79.1386 49.778 78.9519 50.1327 78.8399 50.534L78.8399 55H77.8879L77.8879 44.78H78.8399L78.8399 49.358C79.1292 48.8167 79.5306 48.3873 80.0439 48.07C80.5666 47.7433 81.1219 47.58 81.7099 47.58C82.2699 47.58 82.7179 47.7153 83.0539 47.986C83.3899 48.2473 83.6326 48.616 83.7819 49.092C83.9406 49.5587 84.0199 50.1047 84.0199 50.73L84.0199 55Z" fill="#1F1F1F"/>
<path d="M352.003 0.5L355.118 0.5L355.118 147.919L352.003 147.919" stroke="black"/>
<path d="M372.25 36.7724H373.202L373.202 45.3404C373.202 45.7044 373.263 45.9424 373.384 46.0544C373.515 46.1664 373.678 46.2224 373.874 46.2224C374.042 46.2224 374.21 46.2038 374.378 46.1664C374.556 46.1291 374.7 46.0918 374.812 46.0544L374.98 46.8244C374.803 46.8991 374.584 46.9598 374.322 47.0064C374.07 47.0531 373.851 47.0764 373.664 47.0764C373.235 47.0764 372.89 46.9504 372.628 46.6984C372.376 46.4464 372.25 46.1011 372.25 45.6624L372.25 36.7724ZM379.131 47.1324C378.431 47.1324 377.805 46.9598 377.255 46.6144C376.713 46.2691 376.289 45.8118 375.981 45.2424C375.673 44.6638 375.519 44.0384 375.519 43.3664C375.519 42.6851 375.673 42.0598 375.981 41.4904C376.298 40.9118 376.727 40.4498 377.269 40.1044C377.819 39.7498 378.44 39.5724 379.131 39.5724C379.831 39.5724 380.451 39.7498 380.993 40.1044C381.543 40.4498 381.973 40.9118 382.281 41.4904C382.598 42.0598 382.757 42.6851 382.757 43.3664C382.757 44.0384 382.603 44.6638 382.295 45.2424C381.987 45.8118 381.557 46.2691 381.007 46.6144C380.465 46.9598 379.84 47.1324 379.131 47.1324ZM376.485 43.3804C376.485 43.9218 376.601 44.4164 376.835 44.8644C377.077 45.3031 377.399 45.6531 377.801 45.9144C378.202 46.1664 378.645 46.2924 379.131 46.2924C379.616 46.2924 380.059 46.1618 380.461 45.9004C380.862 45.6391 381.184 45.2844 381.427 44.8364C381.669 44.3884 381.791 43.8938 381.791 43.3524C381.791 42.8111 381.669 42.3164 381.427 41.8684C381.184 41.4204 380.862 41.0658 380.461 40.8044C380.059 40.5431 379.616 40.4124 379.131 40.4124C378.655 40.4124 378.216 40.5478 377.815 40.8184C377.413 41.0798 377.091 41.4344 376.849 41.8824C376.606 42.3304 376.485 42.8298 376.485 43.3804ZM387.275 47.0904C386.771 47.0904 386.309 46.9878 385.889 46.7824C385.478 46.5771 385.119 46.3018 384.811 45.9564C384.512 45.6018 384.279 45.2004 384.111 44.7524C383.943 44.3044 383.859 43.8424 383.859 43.3664C383.859 42.6851 384.004 42.0598 384.293 41.4904C384.582 40.9118 384.979 40.4498 385.483 40.1044C385.996 39.7498 386.584 39.5724 387.247 39.5724C387.872 39.5724 388.414 39.7311 388.871 40.0484C389.338 40.3658 389.73 40.7578 390.047 41.2244L390.047 39.6984H390.901L390.901 47.0204C390.901 47.7018 390.738 48.2711 390.411 48.7284C390.084 49.1858 389.65 49.5311 389.109 49.7644C388.568 49.9978 387.975 50.1144 387.331 50.1144C386.491 50.1144 385.814 49.9651 385.301 49.6664C384.797 49.3678 384.382 48.9664 384.055 48.4624L384.643 48.0004C384.932 48.4578 385.315 48.7984 385.791 49.0224C386.276 49.2464 386.79 49.3584 387.331 49.3584C387.807 49.3584 388.241 49.2698 388.633 49.0924C389.034 48.9244 389.352 48.6678 389.585 48.3224C389.828 47.9771 389.949 47.5431 389.949 47.0204L389.949 45.5784C389.669 46.0358 389.286 46.4044 388.801 46.6844C388.316 46.9551 387.807 47.0904 387.275 47.0904ZM387.541 46.2924C387.924 46.2924 388.288 46.2038 388.633 46.0264C388.978 45.8491 389.268 45.6251 389.501 45.3544C389.744 45.0744 389.893 44.7851 389.949 44.4864L389.949 42.2324C389.809 41.8778 389.608 41.5651 389.347 41.2944C389.086 41.0144 388.787 40.7998 388.451 40.6504C388.115 40.4918 387.774 40.4124 387.429 40.4124C386.888 40.4124 386.421 40.5618 386.029 40.8604C385.646 41.1498 385.348 41.5231 385.133 41.9804C384.928 42.4284 384.825 42.8951 384.825 43.3804C384.825 43.9031 384.946 44.3884 385.189 44.8364C385.432 45.2751 385.758 45.6298 386.169 45.9004C386.58 46.1618 387.037 46.2924 387.541 46.2924ZM396.111 47.1324C395.411 47.1324 394.786 46.9598 394.235 46.6144C393.694 46.2691 393.269 45.8118 392.961 45.2424C392.653 44.6638 392.499 44.0384 392.499 43.3664C392.499 42.6851 392.653 42.0598 392.961 41.4904C393.279 40.9118 393.708 40.4498 394.249 40.1044C394.8 39.7498 395.421 39.5724 396.111 39.5724C396.811 39.5724 397.432 39.7498 397.973 40.1044C398.524 40.4498 398.953 40.9118 399.261 41.4904C399.579 42.0598 399.737 42.6851 399.737 43.3664C399.737 44.0384 399.583 44.6638 399.275 45.2424C398.967 45.8118 398.538 46.2691 397.987 46.6144C397.446 46.9598 396.821 47.1324 396.111 47.1324ZM393.465 43.3804C393.465 43.9218 393.582 44.4164 393.815 44.8644C394.058 45.3031 394.38 45.6531 394.781 45.9144C395.183 46.1664 395.626 46.2924 396.111 46.2924C396.597 46.2924 397.04 46.1618 397.441 45.9004C397.843 45.6391 398.165 45.2844 398.407 44.8364C398.65 44.3884 398.771 43.8938 398.771 43.3524C398.771 42.8111 398.65 42.3164 398.407 41.8684C398.165 41.4204 397.843 41.0658 397.441 40.8044C397.04 40.5431 396.597 40.4124 396.111 40.4124C395.635 40.4124 395.197 40.5478 394.795 40.8184C394.394 41.0798 394.072 41.4344 393.829 41.8824C393.587 42.3304 393.465 42.8298 393.465 43.3804Z" fill="#1F1F1F"/>
<path d="M248.412 30.1997C247.886 30.3937 247.295 30.2345 246.92 29.8195C242.263 24.6621 235.493 21.4162 227.958 21.4162C220.422 21.4162 213.652 24.6622 208.995 29.8195C208.62 30.2345 208.03 30.3937 207.503 30.1997L189.943 23.7336C188.928 23.3601 188.563 22.1246 189.213 21.2675L202.721 3.45817C203.027 3.05505 203.506 2.81787 204.015 2.81787L251.9 2.81787C252.409 2.81787 252.888 3.05505 253.194 3.45818L266.702 21.2675C267.353 22.1246 266.987 23.3601 265.972 23.7336L248.412 30.1997Z" fill="#194E80"/>
<path d="M204.015 56.6282C204.379 56.6282 204.707 56.8431 204.86 57.1703C208.892 65.8088 217.718 71.8023 227.958 71.8023C238.197 71.8023 247.023 65.8088 251.055 57.1702C251.208 56.8431 251.536 56.6283 251.9 56.6283C252.409 56.6283 252.888 56.8654 253.194 57.2686L266.702 75.0779C267.353 75.935 266.987 77.1705 265.972 77.544L228.522 91.3345C228.158 91.4684 227.757 91.4684 227.393 91.3344L189.943 77.544C188.928 77.1704 188.563 75.935 189.213 75.0779L202.721 57.2686C203.027 56.8654 203.506 56.6282 204.015 56.6282Z" fill="#194E80"/>
<path d="M243.274 46.6093C243.274 54.9882 236.417 61.7806 227.958 61.7806C219.499 61.7806 212.641 54.9882 212.641 46.6093C212.641 38.2304 219.499 31.4379 227.958 31.4379C236.417 31.4379 243.274 38.2304 243.274 46.6093Z" fill="#194E80"/>
<path d="M120.534 142.961V125.511H117.295V119.662H120.534V117.584C120.534 114.426 121.339 111.912 122.951 110.043C124.562 108.142 126.705 107.191 129.379 107.191C131.506 107.191 133.714 107.691 136.002 108.69L134.6 114.49C134.084 114.265 133.504 114.087 132.86 113.959C132.215 113.797 131.635 113.717 131.12 113.717C129.218 113.717 128.268 114.909 128.268 117.294V119.662H134.165V125.511H128.268V142.961H120.534Z" fill="#194E80"/>
<path d="M148.466 143.444C145.598 143.444 143.149 142.848 141.119 141.656C139.088 140.463 137.525 138.884 136.43 136.919C135.366 134.953 134.835 132.826 134.835 130.538C134.835 128.089 135.366 125.85 136.43 123.819C137.493 121.789 139.04 120.162 141.07 118.937C143.1 117.713 145.566 117.1 148.466 117.1C151.334 117.1 153.783 117.713 155.813 118.937C157.843 120.162 159.374 121.773 160.405 123.771C161.468 125.769 162 127.912 162 130.2C162 131.134 161.936 131.956 161.807 132.665H143.052C143.181 134.373 143.793 135.678 144.889 136.58C146.017 137.45 147.29 137.885 148.707 137.885C149.835 137.885 150.915 137.612 151.946 137.064C152.977 136.516 153.686 135.775 154.073 134.84L160.647 136.677C159.648 138.675 158.085 140.302 155.958 141.559C153.863 142.816 151.366 143.444 148.466 143.444ZM142.859 127.928H153.879C153.718 126.317 153.122 125.044 152.091 124.109C151.092 123.143 149.851 122.659 148.369 122.659C146.887 122.659 145.63 123.143 144.599 124.109C143.6 125.076 143.02 126.349 142.859 127.928Z" fill="#194E80"/>
<path d="M180.635 124.206C178.766 124.238 177.074 124.544 175.559 125.124C174.045 125.704 172.949 126.575 172.272 127.735V142.961H164.539V117.584H171.644V122.708C172.514 121 173.642 119.662 175.028 118.696C176.413 117.729 177.863 117.229 179.378 117.197C180.023 117.197 180.441 117.213 180.635 117.246V124.206Z" fill="#194E80"/>
<path d="M199.022 124.206C197.153 124.238 195.461 124.544 193.946 125.124C192.432 125.704 191.336 126.575 190.659 127.735V142.961H182.926V117.584H190.031V122.708C190.901 121 192.029 119.662 193.415 118.696C194.8 117.729 196.25 117.229 197.765 117.197C198.409 117.197 198.828 117.213 199.022 117.246V124.206Z" fill="#194E80"/>
<path d="M213.208 143.444C210.308 143.444 207.843 142.832 205.812 141.607C203.814 140.383 202.284 138.772 201.22 136.774C200.157 134.776 199.625 132.617 199.625 130.297C199.625 127.944 200.157 125.769 201.22 123.771C202.284 121.773 203.831 120.162 205.861 118.937C207.891 117.713 210.34 117.1 213.208 117.1C216.076 117.1 218.525 117.713 220.555 118.937C222.585 120.162 224.132 121.773 225.196 123.771C226.259 125.769 226.791 127.944 226.791 130.297C226.791 132.617 226.259 134.776 225.196 136.774C224.132 138.772 222.585 140.383 220.555 141.607C218.525 142.832 216.076 143.444 213.208 143.444ZM207.552 130.297C207.552 132.262 208.084 133.857 209.148 135.082C210.243 136.306 211.597 136.919 213.208 136.919C214.787 136.919 216.108 136.306 217.172 135.082C218.267 133.857 218.815 132.262 218.815 130.297C218.815 128.331 218.267 126.736 217.172 125.511C216.108 124.287 214.787 123.674 213.208 123.674C211.597 123.674 210.243 124.287 209.148 125.511C208.084 126.736 207.552 128.331 207.552 130.297Z" fill="#194E80"/>
<path d="M241.792 143.444C238.956 143.444 236.507 142.832 234.445 141.607C232.415 140.383 230.852 138.772 229.756 136.774C228.693 134.776 228.161 132.601 228.161 130.248C228.161 127.928 228.693 125.769 229.756 123.771C230.852 121.773 232.415 120.162 234.445 118.937C236.475 117.713 238.924 117.1 241.792 117.1C244.692 117.1 247.141 117.729 249.139 118.986C251.169 120.21 252.684 121.821 253.683 123.819L246.142 126.091C245.143 124.48 243.677 123.674 241.744 123.674C240.165 123.674 238.827 124.27 237.732 125.463C236.636 126.655 236.088 128.25 236.088 130.248C236.088 132.246 236.636 133.857 237.732 135.082C238.827 136.306 240.165 136.919 241.744 136.919C242.71 136.919 243.597 136.693 244.402 136.242C245.208 135.759 245.804 135.146 246.191 134.405L253.731 136.725C252.797 138.691 251.298 140.302 249.236 141.559C247.206 142.816 244.725 143.444 241.792 143.444Z" fill="#194E80"/>
<path d="M268.157 143.444C265.289 143.444 262.839 142.848 260.809 141.656C258.779 140.463 257.216 138.884 256.121 136.919C255.057 134.953 254.525 132.826 254.525 130.538C254.525 128.089 255.057 125.85 256.121 123.819C257.184 121.789 258.731 120.162 260.761 118.937C262.791 117.713 265.256 117.1 268.157 117.1C271.025 117.1 273.474 117.713 275.504 118.937C277.534 120.162 279.065 121.773 280.096 123.771C281.159 125.769 281.691 127.912 281.691 130.2C281.691 131.134 281.626 131.956 281.498 132.665H262.743C262.872 134.373 263.484 135.678 264.58 136.58C265.707 137.45 266.98 137.885 268.398 137.885C269.526 137.885 270.606 137.612 271.637 137.064C272.668 136.516 273.377 135.775 273.764 134.84L280.337 136.677C279.339 138.675 277.776 140.302 275.649 141.559C273.554 142.816 271.057 143.444 268.157 143.444ZM262.549 127.928H273.57C273.409 126.317 272.813 125.044 271.782 124.109C270.783 123.143 269.542 122.659 268.06 122.659C266.578 122.659 265.321 123.143 264.29 124.109C263.291 125.076 262.711 126.349 262.549 127.928Z" fill="#194E80"/>
<path d="M308.688 142.961H300.954V128.701C300.954 127.026 300.632 125.817 299.987 125.076C299.375 124.303 298.553 123.916 297.522 123.916C296.459 123.916 295.379 124.335 294.283 125.173C293.188 126.011 292.414 127.09 291.963 128.411V142.961H284.229V117.584H291.19V121.838C292.124 120.355 293.446 119.195 295.154 118.357C296.861 117.519 298.827 117.1 301.051 117.1C302.694 117.1 304.015 117.407 305.014 118.019C306.045 118.599 306.819 119.372 307.334 120.339C307.882 121.274 308.237 122.305 308.398 123.433C308.591 124.561 308.688 125.656 308.688 126.72V142.961Z" fill="#194E80"/>
<path d="M324.992 143.444C322.124 143.444 319.675 142.848 317.645 141.656C315.615 140.463 314.052 138.884 312.956 136.919C311.893 134.953 311.361 132.826 311.361 130.538C311.361 128.089 311.893 125.85 312.956 123.819C314.02 121.789 315.566 120.162 317.597 118.937C319.627 117.713 322.092 117.1 324.992 117.1C327.86 117.1 330.309 117.713 332.339 118.937C334.37 120.162 335.9 121.773 336.931 123.771C337.995 125.769 338.527 127.912 338.527 130.2C338.527 131.134 338.462 131.956 338.333 132.665H319.578C319.707 134.373 320.32 135.678 321.415 136.58C322.543 137.45 323.816 137.885 325.234 137.885C326.362 137.885 327.441 137.612 328.472 137.064C329.504 136.516 330.213 135.775 330.599 134.84L337.173 136.677C336.174 138.675 334.611 140.302 332.484 141.559C330.39 142.816 327.892 143.444 324.992 143.444ZM319.385 127.928H330.406C330.245 126.317 329.649 125.044 328.617 124.109C327.619 123.143 326.378 122.659 324.896 122.659C323.413 122.659 322.156 123.143 321.125 124.109C320.126 125.076 319.546 126.349 319.385 127.928Z" fill="#194E80"/>
</svg>
