<svg width="501" height="353" viewBox="0 0 501 353" fill="none" xmlns="http://www.w3.org/2000/svg">
<rect width="501" height="353" rx="4" fill="#F7F7F7"/>
<path d="M288.172 97.7474C287.214 98.0999 286.141 97.8107 285.46 97.0567C276.996 87.6868 264.694 81.7895 251 81.7895C237.307 81.7895 225.004 87.6868 216.54 97.0567C215.859 97.8107 214.786 98.1 213.828 97.7475L181.918 85.9999C180.074 85.3212 179.41 83.0766 180.591 81.5194L205.139 49.1633C205.695 48.4309 206.566 48 207.491 48L294.509 48C295.434 48 296.305 48.4309 296.861 49.1633L321.409 81.5194C322.59 83.0766 321.926 85.3212 320.082 85.9999L288.172 97.7474Z" fill="#194E80"/>
<path d="M207.491 145.763C208.152 145.763 208.748 146.153 209.026 146.748C216.354 162.442 232.393 173.331 251 173.331C269.608 173.331 285.647 162.442 292.975 146.748C293.252 146.153 293.848 145.763 294.509 145.763C295.434 145.763 296.305 146.194 296.861 146.926L321.409 179.282C322.59 180.84 321.926 183.084 320.082 183.763L252.025 208.817C251.364 209.061 250.636 209.061 249.975 208.817L181.918 183.763C180.074 183.084 179.41 180.84 180.591 179.282L205.139 146.926C205.695 146.194 206.566 145.763 207.491 145.763Z" fill="#194E80"/>
<path d="M278.833 127.56C278.833 142.783 266.372 155.124 251 155.124C235.628 155.124 223.167 142.783 223.167 127.56C223.167 112.338 235.628 99.9971 251 99.9971C266.372 99.9971 278.833 112.338 278.833 127.56Z" fill="#194E80"/>
<path d="M54.8995 303.12V271.352H49V260.704H54.8995V256.92C54.8995 251.171 56.367 246.595 59.3021 243.192C62.2371 239.731 66.1408 238 71.013 238C74.8872 238 78.9083 238.909 83.076 240.728L80.5225 251.288C79.5833 250.877 78.5267 250.555 77.3527 250.32C76.1787 250.027 75.122 249.88 74.1828 249.88C70.7194 249.88 68.9878 252.051 68.9878 256.392V260.704H79.7301V271.352H68.9878V303.12H54.8995Z" fill="#194E80"/>
<path d="M105.781 304C100.557 304 96.0953 302.915 92.3972 300.744C88.699 298.573 85.852 295.699 83.8561 292.12C81.919 288.541 80.9504 284.669 80.9504 280.504C80.9504 276.045 81.919 271.968 83.8561 268.272C85.7933 264.576 88.6109 261.613 92.3091 259.384C96.0073 257.155 100.498 256.04 105.781 256.04C111.005 256.04 115.467 257.155 119.165 259.384C122.863 261.613 125.651 264.547 127.53 268.184C129.467 271.821 130.436 275.723 130.436 279.888C130.436 281.589 130.318 283.085 130.083 284.376H95.9192C96.154 287.485 97.2694 289.861 99.2652 291.504C101.32 293.088 103.638 293.88 106.221 293.88C108.276 293.88 110.242 293.381 112.121 292.384C113.999 291.387 115.291 290.037 115.995 288.336L127.97 291.68C126.15 295.317 123.303 298.28 119.429 300.568C115.613 302.856 111.064 304 105.781 304ZM95.567 275.752H115.643C115.349 272.819 114.263 270.501 112.385 268.8C110.565 267.04 108.305 266.16 105.605 266.16C102.905 266.16 100.615 267.04 98.7369 268.8C96.9171 270.56 95.8605 272.877 95.567 275.752Z" fill="#194E80"/>
<path d="M164.381 268.976C160.976 269.035 157.894 269.592 155.135 270.648C152.376 271.704 150.381 273.288 149.148 275.4V303.12H135.06V256.92H148.003V266.248C149.588 263.139 151.643 260.704 154.167 258.944C156.691 257.184 159.333 256.275 162.092 256.216C163.266 256.216 164.029 256.245 164.381 256.304V268.976Z" fill="#194E80"/>
<path d="M197.875 268.976C194.47 269.035 191.388 269.592 188.63 270.648C185.871 271.704 183.875 273.288 182.642 275.4V303.12H168.554V256.92H181.497V266.248C183.082 263.139 185.137 260.704 187.661 258.944C190.185 257.184 192.827 256.275 195.586 256.216C196.76 256.216 197.523 256.245 197.875 256.304V268.976Z" fill="#194E80"/>
<path d="M223.717 304C218.434 304 213.943 302.885 210.245 300.656C206.605 298.427 203.817 295.493 201.88 291.856C199.943 288.219 198.974 284.288 198.974 280.064C198.974 275.781 199.943 271.821 201.88 268.184C203.817 264.547 206.635 261.613 210.333 259.384C214.031 257.155 218.492 256.04 223.717 256.04C228.941 256.04 233.402 257.155 237.101 259.384C240.799 261.613 243.617 264.547 245.554 268.184C247.491 271.821 248.459 275.781 248.459 280.064C248.459 284.288 247.491 288.219 245.554 291.856C243.617 295.493 240.799 298.427 237.101 300.656C233.402 302.885 228.941 304 223.717 304ZM213.415 280.064C213.415 283.643 214.383 286.547 216.32 288.776C218.316 291.005 220.782 292.12 223.717 292.12C226.593 292.12 229 291.005 230.937 288.776C232.933 286.547 233.931 283.643 233.931 280.064C233.931 276.485 232.933 273.581 230.937 271.352C229 269.123 226.593 268.008 223.717 268.008C220.782 268.008 218.316 269.123 216.32 271.352C214.383 273.581 213.415 276.485 213.415 280.064Z" fill="#194E80"/>
<path d="M275.786 304C270.621 304 266.159 302.885 262.402 300.656C258.704 298.427 255.857 295.493 253.861 291.856C251.924 288.219 250.956 284.259 250.956 279.976C250.956 275.752 251.924 271.821 253.861 268.184C255.857 264.547 258.704 261.613 262.402 259.384C266.101 257.155 270.562 256.04 275.786 256.04C281.069 256.04 285.531 257.184 289.17 259.472C292.868 261.701 295.627 264.635 297.447 268.272L283.711 272.408C281.891 269.475 279.22 268.008 275.698 268.008C272.822 268.008 270.386 269.093 268.39 271.264C266.394 273.435 265.396 276.339 265.396 279.976C265.396 283.613 266.394 286.547 268.39 288.776C270.386 291.005 272.822 292.12 275.698 292.12C277.459 292.12 279.074 291.709 280.541 290.888C282.009 290.008 283.095 288.893 283.799 287.544L297.535 291.768C295.833 295.347 293.103 298.28 289.346 300.568C285.648 302.856 281.128 304 275.786 304Z" fill="#194E80"/>
<path d="M323.812 304C318.588 304 314.127 302.915 310.428 300.744C306.73 298.573 303.883 295.699 301.887 292.12C299.95 288.541 298.982 284.669 298.982 280.504C298.982 276.045 299.95 271.968 301.887 268.272C303.825 264.576 306.642 261.613 310.34 259.384C314.039 257.155 318.529 256.04 323.812 256.04C329.037 256.04 333.498 257.155 337.196 259.384C340.894 261.613 343.683 264.547 345.561 268.184C347.498 271.821 348.467 275.723 348.467 279.888C348.467 281.589 348.35 283.085 348.115 284.376H313.951C314.185 287.485 315.301 289.861 317.297 291.504C319.351 293.088 321.67 293.88 324.253 293.88C326.307 293.88 328.274 293.381 330.152 292.384C332.031 291.387 333.322 290.037 334.026 288.336L346.001 291.68C344.182 295.317 341.335 298.28 337.46 300.568C333.645 302.856 329.096 304 323.812 304ZM313.598 275.752H333.674C333.381 272.819 332.295 270.501 330.416 268.8C328.597 267.04 326.337 266.16 323.636 266.16C320.936 266.16 318.647 267.04 316.768 268.8C314.949 270.56 313.892 272.877 313.598 275.752Z" fill="#194E80"/>
<path d="M397.645 303.12H383.557V277.16C383.557 274.109 382.97 271.909 381.796 270.56C380.681 269.152 379.184 268.448 377.305 268.448C375.368 268.448 373.402 269.211 371.406 270.736C369.41 272.261 368.001 274.227 367.179 276.632V303.12H353.091V256.92H365.77V264.664C367.473 261.965 369.88 259.853 372.991 258.328C376.102 256.803 379.683 256.04 383.733 256.04C386.727 256.04 389.134 256.597 390.953 257.712C392.832 258.768 394.241 260.176 395.18 261.936C396.178 263.637 396.823 265.515 397.117 267.568C397.469 269.621 397.645 271.616 397.645 273.552V303.12Z" fill="#194E80"/>
<path d="M427.345 304C422.121 304 417.66 302.915 413.962 300.744C410.263 298.573 407.416 295.699 405.421 292.12C403.483 288.541 402.515 284.669 402.515 280.504C402.515 276.045 403.483 271.968 405.421 268.272C407.358 264.576 410.175 261.613 413.874 259.384C417.572 257.155 422.062 256.04 427.345 256.04C432.57 256.04 437.031 257.155 440.729 259.384C444.428 261.613 447.216 264.547 449.094 268.184C451.031 271.821 452 275.723 452 279.888C452 281.589 451.883 283.085 451.648 284.376H417.484C417.719 287.485 418.834 289.861 420.83 291.504C422.884 293.088 425.203 293.88 427.786 293.88C429.84 293.88 431.807 293.381 433.685 292.384C435.564 291.387 436.855 290.037 437.56 288.336L449.535 291.68C447.715 295.317 444.868 298.28 440.994 300.568C437.178 302.856 432.629 304 427.345 304ZM417.131 275.752H437.207C436.914 272.819 435.828 270.501 433.949 268.8C432.13 267.04 429.87 266.16 427.169 266.16C424.469 266.16 422.18 267.04 420.301 268.8C418.482 270.56 417.425 272.877 417.131 275.752Z" fill="#194E80"/>
<path d="M476.5 305C471.269 305 466.822 303.884 463.16 301.653C459.556 299.422 456.795 296.486 454.877 292.846C452.959 289.206 452 285.272 452 281.044C452 276.758 452.959 272.794 454.877 269.154C456.795 265.514 459.585 262.578 463.247 260.347C466.909 258.116 471.327 257 476.5 257C481.673 257 486.091 258.116 489.753 260.347C493.415 262.578 496.205 265.514 498.123 269.154C500.041 272.794 501 276.758 501 281.044C501 285.272 500.041 289.206 498.123 292.846C496.205 296.486 493.415 299.422 489.753 301.653C486.091 303.884 481.673 305 476.5 305ZM466.299 281.044C466.299 284.626 467.258 287.532 469.176 289.763C471.152 291.994 473.594 293.11 476.5 293.11C479.348 293.11 481.731 291.994 483.649 289.763C485.626 287.532 486.614 284.626 486.614 281.044C486.614 277.462 485.626 274.556 483.649 272.325C481.731 270.094 479.348 268.978 476.5 268.978C473.594 268.978 471.152 270.094 469.176 272.325C467.258 274.556 466.299 277.462 466.299 281.044Z" fill="#FC92B8"/>
<path d="M24.5 305C19.2687 305 14.8221 303.884 11.1602 301.653C7.55636 299.422 4.79538 296.486 2.87723 292.846C0.959078 289.206 0 285.272 0 281.044C0 276.758 0.959078 272.794 2.87723 269.154C4.79538 265.514 7.58541 262.578 11.2473 260.347C14.9093 258.116 19.3268 257 24.5 257C29.6732 257 34.0908 258.116 37.7527 260.347C41.4146 262.578 44.2046 265.514 46.1228 269.154C48.0409 272.794 49 276.758 49 281.044C49 285.272 48.0409 289.206 46.1228 292.846C44.2046 296.486 41.4146 299.422 37.7527 301.653C34.0908 303.884 29.6732 305 24.5 305ZM14.2989 281.044C14.2989 284.626 15.258 287.532 17.1762 289.763C19.1524 291.994 21.5937 293.11 24.5 293.11C27.3482 293.11 29.7313 291.994 31.6495 289.763C33.6257 287.532 34.6139 284.626 34.6139 281.044C34.6139 277.462 33.6257 274.556 31.6495 272.325C29.7313 270.094 27.3482 268.978 24.5 268.978C21.5937 268.978 19.1524 270.094 17.1762 272.325C15.258 274.556 14.2989 277.462 14.2989 281.044Z" fill="#FC92B8"/>
<path d="M225 352C219.662 352 215.125 350.884 211.388 348.653C207.711 346.422 204.893 343.486 202.936 339.846C200.979 336.206 200 332.272 200 328.044C200 323.758 200.979 319.794 202.936 316.154C204.893 312.514 207.74 309.578 211.477 307.347C215.214 305.116 219.721 304 225 304C230.279 304 234.786 305.116 238.523 307.347C242.26 309.578 245.107 312.514 247.064 316.154C249.021 319.794 250 323.758 250 328.044C250 332.272 249.021 336.206 247.064 339.846C245.107 343.486 242.26 346.422 238.523 348.653C234.786 350.884 230.279 352 225 352ZM214.591 328.044C214.591 331.626 215.569 334.532 217.527 336.763C219.543 338.994 222.034 340.11 225 340.11C227.906 340.11 230.338 338.994 232.295 336.763C234.312 334.532 235.32 331.626 235.32 328.044C235.32 324.462 234.312 321.556 232.295 319.325C230.338 317.094 227.906 315.978 225 315.978C222.034 315.978 219.543 317.094 217.527 319.325C215.569 321.556 214.591 324.462 214.591 328.044Z" fill="#FC92B8"/>
<path d="M250.5 48C245.269 48 240.822 46.8844 237.16 44.6532C233.556 42.422 230.795 39.4862 228.877 35.8459C226.959 32.2055 226 28.2716 226 24.044C226 19.7578 226.959 15.7945 228.877 12.1541C230.795 8.51376 233.585 5.57798 237.247 3.34679C240.909 1.1156 245.327 0 250.5 0C255.673 0 260.091 1.1156 263.753 3.34679C267.415 5.57798 270.205 8.51376 272.123 12.1541C274.041 15.7945 275 19.7578 275 24.044C275 28.2716 274.041 32.2055 272.123 35.8459C270.205 39.4862 267.415 42.422 263.753 44.6532C260.091 46.8844 255.673 48 250.5 48ZM240.299 24.044C240.299 27.6257 241.258 30.5321 243.176 32.7633C245.152 34.9945 247.594 36.1101 250.5 36.1101C253.348 36.1101 255.731 34.9945 257.649 32.7633C259.626 30.5321 260.614 27.6257 260.614 24.044C260.614 20.4624 259.626 17.556 257.649 15.3248C255.731 13.0936 253.348 11.978 250.5 11.978C247.594 11.978 245.152 13.0936 243.176 15.3248C241.258 17.556 240.299 20.4624 240.299 24.044Z" fill="#FC92B8"/>
<g opacity="0.1">
<path d="M0 4.00002C0 1.79088 1.79086 1.969e-05 4 1.969e-05H49.3895V353H4C1.79086 353 0 351.209 0 349V4.00002Z" fill="#FF0000"/>
<path d="M451.611 1.969e-05H497C499.209 1.969e-05 501 1.79088 501 4.00002V349C501 351.209 499.209 353 497 353H451.611V1.969e-05Z" fill="#FF0000"/>
<path d="M485.575 303.529V353L35.8584 353V303.529L485.575 303.529Z" fill="#FF0000"/>
<path d="M485.575 1.969e-05V49.4706L35.8584 49.4705V0L485.575 1.969e-05Z" fill="#FF0000"/>
</g>
</svg>
